<svg id="_4781814_clock_hour_minute_second_time_icon" data-name="4781814_clock_hour_minute_second_time_icon" xmlns="http://www.w3.org/2000/svg" width="34" height="34" viewBox="0 0 34 34">
  <g id="Layer_2" data-name="Layer 2" transform="translate(3.188 3.188)">
    <path id="Path_634" data-name="Path 634" d="M16.813,30.625A13.812,13.812,0,1,1,30.625,16.813,13.812,13.812,0,0,1,16.813,30.625Zm0-25.5A11.688,11.688,0,1,0,28.5,16.813,11.687,11.687,0,0,0,16.813,5.125Z" transform="translate(-3 -3)" fill="#767676"/>
    <path id="Path_635" data-name="Path 635" d="M21.906,23.469a1.062,1.062,0,0,1-.754-.308l-5.844-5.844A1.062,1.062,0,0,1,15,16.563v-8.5a1.062,1.062,0,1,1,2.125,0v8.064l5.536,5.525a1.063,1.063,0,0,1-.754,1.817Z" transform="translate(-2.25 -2.75)" fill="#767676"/>
  </g>
  <g id="frame">
    <rect id="Rectangle_250" data-name="Rectangle 250" width="34" height="34" fill="none"/>
  </g>
</svg>
