<svg xmlns="http://www.w3.org/2000/svg" width="175.51" height="83.095" viewBox="0 0 175.51 83.095">
  <g id="Group_355" data-name="Group 355" transform="translate(0)">
    <rect id="Rectangle_218" data-name="Rectangle 218" width="23.178" height="7.279" rx="3.639" transform="translate(9.562 58.296)" fill="#1e1e1e"/>
    <path id="Path_574" data-name="Path 574" d="M911.44,1066.054a1.527,1.527,0,0,1-1.449,1.055H889.878a1.528,1.528,0,0,1-1.449-1.055Z" transform="translate(-878.784 -1001.535)" fill="#0c0c0c"/>
    <path id="Path_575" data-name="Path 575" d="M888.429,1033.187a1.528,1.528,0,0,1,1.449-1.056h20.113a1.527,1.527,0,0,1,1.449,1.056Z" transform="translate(-878.784 -973.836)" fill="#0c0c0c"/>
    <rect id="Rectangle_219" data-name="Rectangle 219" width="48.199" height="2.007" transform="translate(92.376 61.3) rotate(169.946)" fill="#0c0c0c"/>
    <path id="Path_576" data-name="Path 576" d="M351.533,906.4H350v17.261H240.05v3.448h37.161l17.5,3.448h14.877v4.6h43.2l2.714,3.831h3.8l22.635-4.917,3.512-.958-4.285-16.971-23.873-5.121Z" transform="translate(-233.808 -871.179)" fill="#1e1e1e"/>
    <g id="Group_334" data-name="Group 334" transform="translate(120.886 50.57)">
      <ellipse id="Ellipse_62" data-name="Ellipse 62" cx="12.738" cy="12.738" rx="12.738" ry="12.738" transform="translate(5.853 30.648) rotate(-103.283)" fill="#0c0c0c"/>
      <circle id="Ellipse_63" data-name="Ellipse 63" cx="11.142" cy="11.142" r="11.142" transform="translate(4.182 4.182)" fill="#1e1e1e"/>
      <ellipse id="Ellipse_64" data-name="Ellipse 64" cx="8.494" cy="8.494" rx="8.494" ry="8.494" transform="translate(9.009 25.543) rotate(-103.283)" fill="#afafaf"/>
      <g id="Group_331" data-name="Group 331" transform="translate(8.246 9.822)">
        <path id="Path_577" data-name="Path 577" d="M353.117,1045.689a.574.574,0,0,0,.491-.276,7.082,7.082,0,0,1,.654-.9.575.575,0,0,0-.875-.745,8.234,8.234,0,0,0-.76,1.051.575.575,0,0,0,.49.874Z" transform="translate(-352.543 -1043.562)" fill="#dbdbdb"/>
      </g>
      <g id="Group_332" data-name="Group 332" transform="translate(11.788 7.142)">
        <path id="Path_578" data-name="Path 578" d="M287.075,1044.156a.57.57,0,0,0,.305-.088,8.184,8.184,0,0,0-7.536-14.469.575.575,0,0,0,.448,1.059,7.034,7.034,0,0,1,6.476,12.438.575.575,0,0,0,.307,1.061Z" transform="translate(-279.494 -1028.955)" fill="#dbdbdb"/>
      </g>
      <ellipse id="Ellipse_65" data-name="Ellipse 65" cx="6.704" cy="6.704" rx="6.704" ry="6.704" transform="translate(18.952 24.084) rotate(-157.5)" fill="#848484"/>
      <g id="Group_333" data-name="Group 333" transform="translate(9.034 9.307)">
        <path id="Path_579" data-name="Path 579" d="M298.032,1052.757a.574.574,0,0,0,.368-.724h0a.574.574,0,0,0-.724-.368h0a.571.571,0,0,0-.368.724h0a.574.574,0,0,0,.544.4h0A.59.59,0,0,0,298.032,1052.757Zm-3.164-.371a.573.573,0,0,0-.368-.724h0a.572.572,0,0,0-.724.368h0a.577.577,0,0,0,.368.724h0a.6.6,0,0,0,.18.031h0A.574.574,0,0,0,294.868,1052.385Zm6.31-1.908a.571.571,0,0,0-.127-.8h0a.575.575,0,0,0-.8.123h0a.579.579,0,0,0,.126.8h0a.59.59,0,0,0,.337.111h0A.583.583,0,0,0,301.177,1050.477Zm-9.371.119a.576.576,0,0,0,.126-.8h0a.571.571,0,0,0-.8-.126h0a.58.58,0,0,0-.13.8h0a.584.584,0,0,0,.467.234h0A.577.577,0,0,0,291.807,1050.6Zm10.578-3.812a.577.577,0,0,0-.575-.575h0a.574.574,0,0,0-.575.575h0a.573.573,0,0,0,.571.575h0A.579.579,0,0,0,302.384,1046.784Zm-11.432,0v-.031h0a.57.57,0,0,0-.571-.575h0a.576.576,0,0,0-.579.571h0v.016h0v.011h0a.574.574,0,0,0,.575.575h0A.572.572,0,0,0,290.952,1046.781Zm10.11-2.889a.58.58,0,0,0,.13-.8h0a.576.576,0,0,0-.8-.126h0a.571.571,0,0,0-.127.8h0a.566.566,0,0,0,.464.238h0A.577.577,0,0,0,301.063,1043.892Zm-9.118-.153a.575.575,0,0,0-.122-.8h0a.575.575,0,0,0-.8.122h0a.576.576,0,0,0,.126.8h0a.573.573,0,0,0,.337.111h0A.571.571,0,0,0,291.944,1043.738Zm6.478-2.218a.576.576,0,0,0-.368-.724h0a.576.576,0,0,0-.728.368h0a.58.58,0,0,0,.368.724h0a.6.6,0,0,0,.18.027h0A.578.578,0,0,0,298.423,1041.521Zm-3.9.356a.571.571,0,0,0,.372-.72h0a.569.569,0,0,0-.72-.372h0a.572.572,0,0,0-.372.72h0a.569.569,0,0,0,.544.4h0A.542.542,0,0,0,294.519,1041.877Z" transform="translate(-289.803 -1040.756)" fill="#afafaf"/>
      </g>
      <ellipse id="Ellipse_66" data-name="Ellipse 66" cx="4.595" cy="4.595" rx="4.595" ry="4.595" transform="translate(11.907 20.853) rotate(-103.283)" fill="#afafaf"/>
      <ellipse id="Ellipse_67" data-name="Ellipse 67" cx="2.43" cy="2.43" rx="2.43" ry="2.43" transform="translate(12.894 12.895)" fill="#d8d8d8"/>
    </g>
    <path id="Path_580" data-name="Path 580" d="M273.973,981.815l-30.792,4.736V978.3l.623-4.166,2.586-4.023,5.363-3.3,11.97-.527,9.1,5.555Z" transform="translate(-122.918 -920.071)" opacity="0.2"/>
    <g id="Group_335" data-name="Group 335" transform="translate(119.736 45.909)">
      <path id="Path_581" data-name="Path 581" d="M324.845,988.958h0a.389.389,0,0,0,.389-.389V976.747A10.966,10.966,0,0,1,336.2,965.78h4.358v-1.149H336.2a12.129,12.129,0,0,0-12.116,12.116l.371,11.835A.389.389,0,0,0,324.845,988.958Z" transform="translate(-324.085 -964.631)" fill="#0c0c0c"/>
    </g>
    <g id="Group_336" data-name="Group 336" transform="translate(149.906 58.711)">
      <path id="Path_582" data-name="Path 582" d="M243.477,1044.36h0a.3.3,0,0,0,.3-.279l.559-9.682h-1.149v9.665A.3.3,0,0,0,243.477,1044.36Z" transform="translate(-243.181 -1034.399)" fill="#0c0c0c"/>
    </g>
    <path id="Path_583" data-name="Path 583" d="M180.95,788.453V769.737a26.79,26.79,0,0,0-3.557-13.339l-8.884-15.474a7.011,7.011,0,0,0-6.08-3.52H133.206a3.783,3.783,0,0,0-3.783,3.783v39.125h18.15a14.606,14.606,0,0,1,14.606,14.606v2.251h15.844a5.011,5.011,0,0,0,4.61-3.046l.769-1.8a2.758,2.758,0,0,0-2.189-3.853c-.086-.008-.173-.012-.261-.012Z" transform="translate(-11.698 -733.19)" fill="#eaeaea"/>
    <path id="Path_584" data-name="Path 584" d="M171.847,934.183V939.4c.512-1.134,1-2.13,1.365-2.856l14.583.61a27.175,27.175,0,0,1,11.85,3.3l15.952,8.734a14.562,14.562,0,0,0,2.67,1.126v-2.424a12.3,12.3,0,0,1-1.566-.718l-15.952-8.734a29.329,29.329,0,0,0-12.858-3.577Z" transform="translate(-54.122 -893.861)" fill="#b7b7b7"/>
    <g id="Group_337" data-name="Group 337" transform="translate(134.571 38.963)">
      <path id="Path_585" data-name="Path 585" d="M252.076,934.273a.482.482,0,0,0,.232-.9l-5.544-3.035a29.849,29.849,0,0,0-6.422-2.6.482.482,0,0,0-.255.929,28.875,28.875,0,0,1,6.215,2.514l5.544,3.035A.48.48,0,0,0,252.076,934.273Zm-15-6.271a.482.482,0,0,0,.075-.957c-.71-.114-1.434-.2-2.151-.264a.482.482,0,1,0-.083.96c.694.06,1.395.146,2.082.255A.466.466,0,0,0,237.076,928Z" transform="translate(-234.477 -926.779)" fill="#fff"/>
    </g>
    <path id="Path_586" data-name="Path 586" d="M200.748,943.652l15.952,8.734a12.3,12.3,0,0,0,1.566.718v1.466a14.567,14.567,0,0,1-2.67-1.126l-15.952-8.734a27.03,27.03,0,0,0-11.85-3.3l-11.546-.483a4.6,4.6,0,0,0-4.386,2.694l-.015.034V939.4l16.044.671A29.328,29.328,0,0,1,200.748,943.652Z" transform="translate(-54.122 -898.123)" fill="#fff"/>
    <g id="Group_338" data-name="Group 338" transform="translate(164.145 45.974)">
      <path id="Path_587" data-name="Path 587" d="M143.781,973.55l-.017,0a2.238,2.238,0,0,1-1.728-2.193v-4.921A1.448,1.448,0,0,1,143.7,965c2.808.411,3.446,1.8,3.446,1.8h0a19.3,19.3,0,0,1,.078,7.021l-.078.449Z" transform="translate(-142.036 -964.987)" fill="#fff"/>
    </g>
    <path id="Path_588" data-name="Path 588" d="M156.689,965.011a7.692,7.692,0,0,1,1.294.3,1.252,1.252,0,0,1,.031.27v3.32a1.261,1.261,0,0,1-2.522,0v-3.32a1.236,1.236,0,0,1,.024-.235A1.466,1.466,0,0,1,156.689,965.011Z" transform="translate(9.131 -919.019)" fill="#ff8a33"/>
    <path id="Path_589" data-name="Path 589" d="M152.767,1038.749l-.607,1.423a5.011,5.011,0,0,1-4.61,3.046H131.707v-2.251a14.717,14.717,0,0,0-.168-2.219Z" transform="translate(18.774 -979.24)" fill="#d3d3d3"/>
    <path id="Path_590" data-name="Path 590" d="M176.609,786.69h-.491l-5.315-6.637v-31.5a3.342,3.342,0,0,1,3.338-3.338h22.693a9.556,9.556,0,0,1,8.4,5l3.581,6.593a39.948,39.948,0,0,1,4.828,19.007v20.332a11.259,11.259,0,0,1-.386,2.922l-1.2,4.477h-.4l1.23-4.577a10.872,10.872,0,0,0,.373-2.822V775.815a39.562,39.562,0,0,0-4.782-18.824L204.9,750.4a9.173,9.173,0,0,0-8.068-4.8H174.142a2.958,2.958,0,0,0-2.955,2.955v31.365Z" transform="translate(-49.312 -739.568)" fill="#727272"/>
    <path id="Path_591" data-name="Path 591" d="M349.321,907.538V906.06a1.377,1.377,0,0,1,1.377-1.377h1.8a6.156,6.156,0,0,1,3.792,1.306h0a3.714,3.714,0,0,1,1.21,1.678.936.936,0,0,1-.883,1.248H350.7A1.377,1.377,0,0,1,349.321,907.538Z" transform="translate(-225.977 -869.774)" fill="#b7b7b7"/>
    <path id="Path_592" data-name="Path 592" d="M225.009,782.466v-2.178a24.13,24.13,0,0,0-2.644-10.982l-3.525-6.9a9.49,9.49,0,0,0-8.45-5.171H191.3a2.746,2.746,0,0,0-2.746,2.746v8.133a7.744,7.744,0,0,0,5.392,7.378l28.275,9.012A2.142,2.142,0,0,0,225.009,782.466Z" transform="translate(-63.929 -749.385)" fill="#30a2a5"/>
    <path id="Path_593" data-name="Path 593" d="M256.5,777.568v-1.755a19.445,19.445,0,0,0-2.131-8.85l-2.84-5.557a7.648,7.648,0,0,0-6.81-4.167H229.337a2.213,2.213,0,0,0-2.213,2.213v6.554a6.24,6.24,0,0,0,4.345,5.945l22.785,7.262A1.726,1.726,0,0,0,256.5,777.568Z" transform="translate(-102.503 -749.385)" fill="#47cfe2"/>
    <path id="Path_594" data-name="Path 594" d="M209.313,796.109l-.864.412a1.707,1.707,0,0,1-2.234-.726l-1.146-2.106a1.708,1.708,0,0,1,.7-2.326l.884-.467h.005l.348.681-.879.465a.942.942,0,0,0-.387,1.283l1.146,2.106a.941.941,0,0,0,1.232.4l.855-.407.348.681Z" transform="translate(-51.235 -776.865)" fill="#155656"/>
    <path id="Path_595" data-name="Path 595" d="M251.7,837.154l2.247-2.928a.522.522,0,0,1,.41-.2h.026l10.918-.011a.586.586,0,0,1,.468.236l.009.013,7.474,10.129-2.757-.879-5.507-8.335-10.357-.01-2.243,2.413A7.705,7.705,0,0,1,251.7,837.154Z" transform="translate(-123.757 -812.072)" fill="#155656"/>
    <path id="Path_596" data-name="Path 596" d="M188.55,867.222a2.634,2.634,0,0,1,.9-1.984l1.078-.94a4.45,4.45,0,0,1,3.51-1.059l2.292.3a24.108,24.108,0,0,1,.23,3.263v2.178a2.142,2.142,0,0,1-2.793,2.041l-5.22-1.664Z" transform="translate(-35.483 -835.903)" fill="#155656"/>
    <path id="Path_597" data-name="Path 597" d="M164.448,766.289h-.969a2.519,2.519,0,0,1-2.253-1.392L151.189,744.82a3.117,3.117,0,0,1-.329-1.394V743.1a7,7,0,0,1,2.4,2.475l8.884,15.474A26.79,26.79,0,0,1,164.448,766.289Z" transform="translate(3.547 -737.841)" fill="#30a2a5"/>
    <g id="Group_339" data-name="Group 339" transform="translate(154.024 4.876)">
      <path id="Path_598" data-name="Path 598" d="M161.774,764.967h.969a.383.383,0,0,0,0-.766h-.969a2.124,2.124,0,0,1-1.91-1.181l-10.037-20.077a2.749,2.749,0,0,1-.288-1.222V741.4a.383.383,0,1,0-.766,0v.326a3.518,3.518,0,0,0,.369,1.565l10.037,20.077A2.886,2.886,0,0,0,161.774,764.967Z" transform="translate(-148.772 -741.012)" fill="#081216"/>
    </g>
    <rect id="Rectangle_220" data-name="Rectangle 220" width="3.903" height="2.754" rx="1.377" transform="translate(164.092 25.694)" fill="#081216"/>
    <g id="Group_340" data-name="Group 340" transform="translate(165.469 22.635)">
      <path id="Path_599" data-name="Path 599" d="M119.2,846.7h.824a2.057,2.057,0,0,0,2.054-2.054v-6.278a.575.575,0,1,0-1.149,0v6.278a.906.906,0,0,1-.905.905H119.2a.908.908,0,0,1-.785-.455l-.822-1.434a4.006,4.006,0,0,0-3.466-2.008h-1.035a.575.575,0,0,0,0,1.15h1.035a2.853,2.853,0,0,1,2.469,1.43l.822,1.434A2.059,2.059,0,0,0,119.2,846.7Z" transform="translate(-112.518 -837.794)" fill="#081216"/>
    </g>
    <path id="Path_600" data-name="Path 600" d="M116.527,811h0a2.155,2.155,0,0,1,2.155,2.155v7.455h-.016a3.017,3.017,0,0,1-3.017-3.017v-5.715A.878.878,0,0,1,116.527,811Z" transform="translate(55.775 -793.282)" fill="#081216"/>
    <path id="Path_601" data-name="Path 601" d="M109.908,835.276h0v-4.789h0a1.054,1.054,0,0,1,1.053,1.054v2.682A1.053,1.053,0,0,1,109.908,835.276Z" transform="translate(64.549 -809.193)" fill="#081216"/>
    <g id="Group_341" data-name="Group 341" transform="translate(19.754 59.601)">
      <path id="Path_602" data-name="Path 602" d="M719.949,1039.251a74.5,74.5,0,0,0,43.563,0l.14.458a74.981,74.981,0,0,1-43.843,0Z" transform="translate(-719.809 -1039.251)" fill="#0c0c0c"/>
      <path id="Path_603" data-name="Path 603" d="M729.95,1044.862a74.98,74.98,0,0,0,39.913,0l.127.462a75.46,75.46,0,0,1-40.168,0Z" transform="translate(-727.985 -1043.833)" fill="#0c0c0c"/>
      <path id="Path_604" data-name="Path 604" d="M737.914,1049.656a75.466,75.466,0,0,0,37.007,0l.117.464a75.937,75.937,0,0,1-37.241,0Z" transform="translate(-734.496 -1047.747)" fill="#0c0c0c"/>
      <path id="Path_605" data-name="Path 605" d="M746.82,1054.469a75.933,75.933,0,0,0,33.756,0l.106.467a76.422,76.422,0,0,1-33.969,0Z" transform="translate(-741.777 -1051.677)" fill="#0c0c0c"/>
    </g>
    <g id="Group_342" data-name="Group 342" transform="translate(6.242 52.485)">
      <path id="Path_606" data-name="Path 606" d="M543.126,1000.472v1.149h-108.8v1.149h36.124l.11.022,17.385,3.426h15.914v4.6h39.268v1.149H502.708v-4.6H487.831l-17.5-3.448H433.174v-3.448Z" transform="translate(-433.174 -1000.472)" fill="#3a3a3a"/>
    </g>
    <rect id="Rectangle_221" data-name="Rectangle 221" width="10.982" height="7.662" transform="translate(97.867 57.785)" fill="#efefef"/>
    <rect id="Rectangle_222" data-name="Rectangle 222" width="10.982" height="1.692" transform="translate(97.867 63.755)" fill="#d8d8d8"/>
    <rect id="Rectangle_223" data-name="Rectangle 223" width="10.982" height="0.926" transform="translate(97.867 57.785)" fill="#b2b2b2"/>
    <rect id="Rectangle_224" data-name="Rectangle 224" width="12.898" height="1.085" transform="translate(96.91 56.7)" fill="#3a3a3a"/>
    <g id="Group_343" data-name="Group 343" transform="translate(98.011 54.816)">
      <rect id="Rectangle_225" data-name="Rectangle 225" width="3.272" height="0.734" transform="translate(7.423 1.149)" fill="#d3d3d3"/>
      <rect id="Rectangle_226" data-name="Rectangle 226" width="1.9" height="1.149" transform="translate(8.109)" fill="#bcbcbc"/>
      <rect id="Rectangle_227" data-name="Rectangle 227" width="3.272" height="0.734" transform="translate(0 1.149)" fill="#d3d3d3"/>
      <rect id="Rectangle_228" data-name="Rectangle 228" width="1.9" height="1.149" transform="translate(0.686)" fill="#bcbcbc"/>
    </g>
    <g id="Group_344" data-name="Group 344" transform="translate(18.328 55.423)">
      <path id="Path_607" data-name="Path 607" d="M713.775,1023.279h0a1.74,1.74,0,0,0,1.74-1.74v-5.06h-3.48v5.06A1.74,1.74,0,0,0,713.775,1023.279Z" transform="translate(-668.819 -1016.479)" fill="#3a3a3a"/>
      <path id="Path_608" data-name="Path 608" d="M949.291,1023.279h0a1.74,1.74,0,0,0,1.74-1.74v-5.06h-3.48v5.06A1.74,1.74,0,0,0,949.291,1023.279Z" transform="translate(-947.551 -1016.479)" fill="#3a3a3a"/>
    </g>
    <g id="Group_348" data-name="Group 348" transform="translate(26.438 52.62)">
      <circle id="Ellipse_68" data-name="Ellipse 68" cx="10.775" cy="10.775" r="10.775" transform="translate(15.238 30.476) rotate(-135)" fill="#0c0c0c"/>
      <circle id="Ellipse_69" data-name="Ellipse 69" cx="9.425" cy="9.425" r="9.425" transform="translate(15.238 28.566) rotate(-135)" fill="#1e1e1e"/>
      <ellipse id="Ellipse_70" data-name="Ellipse 70" cx="7.185" cy="7.185" rx="7.185" ry="7.185" transform="translate(8.053 8.053)" fill="#afafaf"/>
      <g id="Group_345" data-name="Group 345" transform="translate(9.251 10.584)">
        <path id="Path_609" data-name="Path 609" d="M863.832,1060.684a.486.486,0,0,0,.416-.233,5.979,5.979,0,0,1,.553-.765.486.486,0,1,0-.74-.63,6.928,6.928,0,0,0-.643.889.486.486,0,0,0,.415.739Z" transform="translate(-863.347 -1058.885)" fill="#dbdbdb"/>
      </g>
      <g id="Group_346" data-name="Group 346" transform="translate(12.247 8.317)">
        <path id="Path_610" data-name="Path 610" d="M807.971,1059.386a.483.483,0,0,0,.258-.075,6.923,6.923,0,0,0-6.374-12.24.486.486,0,0,0,.379.9,5.95,5.95,0,0,1,5.478,10.521.486.486,0,0,0,.259.9Z" transform="translate(-801.558 -1046.528)" fill="#dbdbdb"/>
      </g>
      <circle id="Ellipse_71" data-name="Ellipse 71" cx="5.671" cy="5.671" r="5.671" transform="translate(15.238 23.258) rotate(-135)" fill="#848484"/>
      <g id="Group_347" data-name="Group 347" transform="translate(9.917 10.149)">
        <path id="Path_611" data-name="Path 611" d="M817.238,1066.662a.485.485,0,0,0,.311-.612h0a.485.485,0,0,0-.613-.311h0a.483.483,0,0,0-.311.612h0a.485.485,0,0,0,.46.337h0A.5.5,0,0,0,817.238,1066.662Zm-2.677-.314a.484.484,0,0,0-.311-.612h0a.484.484,0,0,0-.612.311h0a.488.488,0,0,0,.311.613h0a.5.5,0,0,0,.152.026h0A.486.486,0,0,0,814.561,1066.347Zm5.337-1.614a.483.483,0,0,0-.107-.677h0a.486.486,0,0,0-.68.1h0a.49.49,0,0,0,.107.681h0a.5.5,0,0,0,.285.094h0A.493.493,0,0,0,819.9,1064.734Zm-7.926.1a.487.487,0,0,0,.107-.681h0a.484.484,0,0,0-.677-.107h0a.491.491,0,0,0-.11.681h0a.5.5,0,0,0,.4.2h0A.487.487,0,0,0,811.972,1064.834Zm8.947-3.224a.488.488,0,0,0-.486-.486h0a.485.485,0,0,0-.486.486h0a.485.485,0,0,0,.483.486h0A.49.49,0,0,0,820.919,1061.61Zm-9.67,0v-.026h0a.483.483,0,0,0-.483-.486h0a.488.488,0,0,0-.49.483h0v.013h0v.01h0a.486.486,0,0,0,.486.486h0A.484.484,0,0,0,811.249,1061.607Zm8.552-2.443a.491.491,0,0,0,.11-.681h0a.487.487,0,0,0-.68-.107h0a.483.483,0,0,0-.107.677h0a.478.478,0,0,0,.392.2h0A.49.49,0,0,0,819.8,1059.163Zm-7.713-.13a.486.486,0,0,0-.1-.681h0a.487.487,0,0,0-.681.1h0a.487.487,0,0,0,.107.681h0a.485.485,0,0,0,.285.094h0A.483.483,0,0,0,812.088,1059.034Zm5.48-1.876a.487.487,0,0,0-.311-.613h0a.487.487,0,0,0-.616.311h0a.491.491,0,0,0,.311.613h0a.514.514,0,0,0,.152.023h0A.489.489,0,0,0,817.568,1057.157Zm-3.3.3a.483.483,0,0,0,.315-.609h0a.481.481,0,0,0-.609-.314h0a.484.484,0,0,0-.314.609h0a.481.481,0,0,0,.46.337h0A.456.456,0,0,0,814.266,1057.459Z" transform="translate(-810.277 -1056.511)" fill="#afafaf"/>
      </g>
      <circle id="Ellipse_72" data-name="Ellipse 72" cx="3.887" cy="3.887" r="3.887" transform="translate(11.351 11.351)" fill="#afafaf"/>
      <ellipse id="Ellipse_73" data-name="Ellipse 73" cx="2.055" cy="2.055" rx="2.055" ry="2.055" transform="translate(13.183 13.183)" fill="#d8d8d8"/>
    </g>
    <rect id="Rectangle_229" data-name="Rectangle 229" width="1.213" height="6.002" transform="translate(6.241 55.933)" fill="#0c0c0c"/>
    <g id="Group_349" data-name="Group 349" transform="translate(0)">
      <rect id="Rectangle_230" data-name="Rectangle 230" width="112.534" height="50.187" rx="2.819" transform="translate(1.149 1.149)" fill="#fff"/>
      <path id="Path_612" data-name="Path 612" d="M442.252,714.438h111.5a1.667,1.667,0,0,1,1.667,1.667v49.152a1.667,1.667,0,0,1-1.667,1.667h-111.5a1.666,1.666,0,0,1-1.667-1.667V716.1A1.667,1.667,0,0,1,442.252,714.438Zm.632,50.187H553.12V716.737H442.885Z" transform="translate(-440.586 -714.438)" fill="#ddd"/>
    </g>
    <path id="Path_613" data-name="Path 613" d="M486.829,1003.92H465.234v1.5l-3.48.188v-1.686H450.881v2.275l-1.213.066v-5.788H556.593l-68.455,3.706Z" transform="translate(-443.427 -947.986)" opacity="0.34"/>
    <path id="Path_614" data-name="Path 614" d="M785.493,1004.786l2.809,7.441-31.862,3.409,4.533-12.9h24.2Z" transform="translate(-731.427 -949.833)" opacity="0.34"/>
    <path id="Path_615" data-name="Path 615" d="M751.853,1000.472h24.7l4.5,13.306a.338.338,0,0,1-.276.444h0a.338.338,0,0,1-.364-.225l-4.41-12.759H752.4L747.992,1014a.338.338,0,0,1-.364.225h0a.338.338,0,0,1-.276-.444Z" transform="translate(-722.529 -947.987)" fill="#ddd"/>
    <g id="Group_350" data-name="Group 350" transform="translate(163.953 45.784)">
      <path id="Path_616" data-name="Path 616" d="M148.265,973.622a.192.192,0,0,0,.04-.379l-3.375-.728a2.054,2.054,0,0,1-1.582-2.007v-4.921a1.245,1.245,0,0,1,.432-.943,1.281,1.281,0,0,1,1.024-.3c2.641.39,3.281,1.679,3.287,1.692a.192.192,0,0,0,.348-.161c-.028-.061-.712-1.487-3.578-1.91a1.662,1.662,0,0,0-1.331.384,1.627,1.627,0,0,0-.565,1.233v4.921a2.439,2.439,0,0,0,1.878,2.38l.019,0,3.363.725A.192.192,0,0,0,148.265,973.622Z" transform="translate(-142.965 -963.952)" fill="#081216"/>
    </g>
    <g id="Group_351" data-name="Group 351" transform="translate(124.621 7.854)" opacity="0.4">
      <path id="Path_617" data-name="Path 617" d="M188.55,783.478l36.459,18.778v1.635a2.131,2.131,0,0,1-.219.945L188.55,786.17Z" transform="translate(-188.55 -778.663)" fill="#fff"/>
      <path id="Path_618" data-name="Path 618" d="M189.246,759.162a2.747,2.747,0,0,1,2.62-1.923h19.095a9.49,9.49,0,0,1,8.45,5.171l3.525,6.9a24.127,24.127,0,0,1,2.516,8.5Z" transform="translate(-189.12 -757.239)" fill="#fff"/>
    </g>
    <g id="Group_352" data-name="Group 352" transform="translate(124.238 7.471)">
      <path id="Path_619" data-name="Path 619" d="M221.17,783.289a2.53,2.53,0,0,0,2.517-2.528v-2.178A24.623,24.623,0,0,0,221,767.427l-3.525-6.9a9.832,9.832,0,0,0-8.791-5.38H189.591a3.132,3.132,0,0,0-3.129,3.129v8.133a8.1,8.1,0,0,0,5.659,7.742l28.274,9.012A2.551,2.551,0,0,0,221.17,783.289Zm-12.484-27.372a9.069,9.069,0,0,1,8.109,4.962l3.525,6.9a23.856,23.856,0,0,1,2.6,10.807v2.178a1.759,1.759,0,0,1-2.293,1.676l-28.275-9.012a7.335,7.335,0,0,1-5.125-7.012V758.28a2.365,2.365,0,0,1,2.362-2.362Z" transform="translate(-186.462 -755.151)" fill="#081216"/>
    </g>
    <path id="Path_620" data-name="Path 620" d="M374.392,908.667h0a.725.725,0,0,0,.723-.723v-3.06a.725.725,0,0,0-.723-.723h0a.725.725,0,0,0-.723.723v3.06A.725.725,0,0,0,374.392,908.667Z" transform="translate(-248.003 -869.348)" fill="#081216"/>
    <path id="Path_621" data-name="Path 621" d="M118.874,822.5h0a.547.547,0,0,1-.547-.547v-4.379a.547.547,0,0,1,.547-.547h0a.547.547,0,0,1,.547.547v4.379A.547.547,0,0,1,118.874,822.5Z" transform="translate(54.543 -798.198)" fill="#272b2b"/>
    <g id="Group_353" data-name="Group 353" transform="translate(65.417 0.628)">
      <path id="Path_622" data-name="Path 622" d="M684.121,718.827h3.854a.482.482,0,0,0,0-.964h-3.854a.482.482,0,1,0,0,.964Z" transform="translate(-683.639 -717.863)" fill="#fff"/>
    </g>
    <g id="Group_354" data-name="Group 354" transform="translate(75.81 0.628)">
      <path id="Path_623" data-name="Path 623" d="M490.963,718.827h28.9a.482.482,0,1,0,0-.964h-28.9a.482.482,0,0,0,0,.964Z" transform="translate(-490.481 -717.863)" fill="#fff"/>
    </g>
  </g>
</svg>
