<svg xmlns="http://www.w3.org/2000/svg" width="30.275" height="27.134" viewBox="0 0 30.275 27.134">
  <g id="Group_25" data-name="Group 25" transform="translate(620.823 -1119.885)">
    <path id="Path_180" data-name="Path 180" d="M-529.4,1130.035q0-4.607,0-9.214c0-.681.256-.936.941-.936h17c.706,0,.949.241.949.957q0,9.245,0,18.489c0,.627-.263.885-.891.885h-16.871l-.28,0a.751.751,0,0,1-.844-.842q0-1.774,0-3.549Zm1.589,8.583h15.7v-17.125h-15.7Z" transform="translate(-85.732)"/>
    <path id="Path_181" data-name="Path 181" d="M-620.823,1120.06l1.758.565c.976.313,1.95.633,2.93.934a.3.3,0,0,1,.252.346q-.008,8.307-.01,16.614c0,.107-.07.284-.146.31-1.581.524-3.168,1.03-4.783,1.549Z" transform="translate(0 -0.164)"/>
    <path id="Path_182" data-name="Path 182" d="M-208.855,1120.492v20.288l-2.311-.74c-.789-.252-1.576-.51-2.368-.752a.3.3,0,0,1-.252-.349q.008-8.307,0-16.614c0-.163,0-.286.207-.351,1.531-.481,3.058-.976,4.586-1.466A.768.768,0,0,1-208.855,1120.492Z" transform="translate(-381.693 -0.569)"/>
    <path id="Path_183" data-name="Path 183" d="M-503.533,1462.4h-10.3c0,.431,0,.851,0,1.272.006,1.062-.14,1.211-1.193,1.213-.539,0-1.079.007-1.618,0a.708.708,0,0,1-.732-.727c-.007-1.722,0-3.443,0-5.165a.819.819,0,0,1,.022-.13H-500c.006.115.015.215.015.316q0,2.4,0,4.792c0,.673-.245.916-.919.917q-.856,0-1.711,0c-.657,0-.913-.263-.914-.931C-503.534,1463.445-503.533,1462.938-503.533,1462.4Zm-5.191-1.178c.466,0,.931,0,1.4,0,.86,0,.793.044.79-.788,0-.359-.06-.42-.413-.42-1.035,0-2.07,0-3.1,0-.826-.005-.778-.03-.783.808,0,.292.111.412.405.406C-509.863,1461.214-509.293,1461.222-508.724,1461.222Zm4.917-.6a.484.484,0,0,0-.478-.474.477.477,0,0,0-.461.487.461.461,0,0,0,.458.452A.469.469,0,0,0-503.807,1460.62Zm1.035-.474a.476.476,0,0,0-.478.47.462.462,0,0,0,.441.468.468.468,0,0,0,.5-.447A.485.485,0,0,0-502.773,1460.146Zm1.018.469a.463.463,0,0,0,.471.471.47.47,0,0,0,.467-.447.483.483,0,0,0-.458-.493A.477.477,0,0,0-501.755,1460.615Zm-11.3-.469a.487.487,0,0,0-.495.457.467.467,0,0,0,.429.482.461.461,0,0,0,.507-.432A.485.485,0,0,0-513.059,1460.146Zm-1.518,0a.488.488,0,0,0-.473.479.469.469,0,0,0,.453.461.459.459,0,0,0,.485-.455A.48.48,0,0,0-514.577,1460.146Zm-1.5,0a.488.488,0,0,0-.471.482.469.469,0,0,0,.487.458.455.455,0,0,0,.45-.458A.477.477,0,0,0-516.076,1460.146Z" transform="translate(-97.004 -317.868)"/>
    <path id="Path_184" data-name="Path 184" d="M-475.187,1321.8v-5.558h5.574v5.558Z" transform="translate(-136.568 -184.132)"/>
    <path id="Path_185" data-name="Path 185" d="M-364.39,1321.723h-5.565v-5.569h5.565Z" transform="translate(-235.248 -184.049)"/>
    <path id="Path_186" data-name="Path 186" d="M-422.284,1210.84h5.562v5.561h-5.562Z" transform="translate(-186.178 -85.292)"/>
  </g>
</svg>
