<svg xmlns="http://www.w3.org/2000/svg" width="88.882" height="87.372" viewBox="0 0 88.882 87.372">
  <g id="Group_27" data-name="Group 27" transform="translate(-211.082 -308.028)">
    <g id="Group_14" data-name="Group 14" transform="translate(211.082 308.028)">
      <path id="Path_78" data-name="Path 78" d="M211.082,308.028v79.141h35.46l.023-54.157.759.422,2.957-3.809-3.8-3.788v-17.81Z" transform="translate(-211.082 -308.028)" fill="#fda328"/>
    </g>
    <rect id="Rectangle_15" data-name="Rectangle 15" width="3.808" height="16.494" transform="translate(266.494 325.828)" fill="#161615"/>
    <path id="Path_79" data-name="Path 79" d="M355.432,353.15c0,2.747.783,4.71,2.324,5.836A5.865,5.865,0,0,0,361.283,360a12.654,12.654,0,0,0,3.815-.671l.528-.17-.479-3.345-.764.283c-1.769.65-3.165.686-4.024.084-.762-.529-1.149-1.572-1.149-3.1V346.3H364.8v-3.115H359.21v-4.733h-3.331l-.252,4.733h-3.444v2.926l3.25.158Z" transform="translate(-80.348 -17.324)" fill="#161615"/>
    <path id="Path_80" data-name="Path 80" d="M251.632,417.23c-.177-.162-.177-.815-.177-1.447v-10.4l-.388-.175a16.276,16.276,0,0,0-6.36-1.48c-5.544,0-9.049,3.222-9.148,8.423,0,4.3,2.341,8.641,7.57,8.641a6.766,6.766,0,0,0,5.167-2.1,2.7,2.7,0,0,0,.817,1.236,4.308,4.308,0,0,0,3.626.568l.545-.1v-3.13l-.714.062C251.89,417.389,251.687,417.281,251.632,417.23Zm-7.084-10.163a8.613,8.613,0,0,1,3.194.655v4.433c0,3.163-1.547,5.052-4.139,5.052-3.126,0-4.235-2.721-4.235-5.034C239.45,408.928,241.339,407.067,244.547,407.067Z" transform="translate(-13.938 -54.498)" fill="#161615"/>
    <path id="Path_81" data-name="Path 81" d="M293.678,404.558a6.569,6.569,0,0,0-3.953-1.262,5.732,5.732,0,0,0-4.325,1.59,2.414,2.414,0,0,0-.623-.768c-1.035-.838-2.632-.686-3.907-.465l-.556.1.059,2.908.7-.062c.679-.049.88.059.938.111.177.164.177.8.177,1.318v12.3h3.746V410.2a3.433,3.433,0,0,1,3.538-3.382,5.278,5.278,0,0,1,2.864.9l.744.478.97-3.371Z" transform="translate(-39.423 -54.25)" fill="#161615"/>
    <path id="Path_82" data-name="Path 82" d="M326.071,417.23c-.177-.162-.177-.815-.177-1.447v-10.4l-.388-.175a16.279,16.279,0,0,0-6.362-1.48c-5.543,0-9.046,3.222-9.145,8.423,0,4.3,2.34,8.641,7.568,8.641a6.766,6.766,0,0,0,5.167-2.1,2.688,2.688,0,0,0,.817,1.234,4.3,4.3,0,0,0,3.628.57l.545-.1v-3.13l-.714.062C326.327,417.389,326.127,417.281,326.071,417.23Zm-7.084-10.163a8.638,8.638,0,0,1,3.191.653v4.435c0,3.163-1.547,5.052-4.139,5.052-3.121,0-4.232-2.61-4.232-5.034C313.889,408.928,315.778,407.067,318.986,407.067Z" transform="translate(-56.326 -54.498)" fill="#161615"/>
    <path id="Path_83" data-name="Path 83" d="M253.19,469.62c-.093-.08-.148-.4-.162-.917v-8.864c0-4.33-2.66-7.128-6.778-7.128a6.541,6.541,0,0,0-5,1.855,2.922,2.922,0,0,0-.854-1.11,4.433,4.433,0,0,0-3.858-.506l-.514.124.056,2.873.726-.093c.8-.1.972.013,1,.034a4.4,4.4,0,0,1,.157,1.737v11.93h3.808v-9.589a3.666,3.666,0,0,1,3.823-3.919,3.517,3.517,0,0,1,3.633,3.792v8.928a4.146,4.146,0,0,0,1.213,3.4,3.44,3.44,0,0,0,2.291.707,8.73,8.73,0,0,0,1.665-.18l.533-.1v-3.032l-.745.1C253.427,469.761,253.234,469.653,253.19,469.62Z" transform="translate(-14.2 -82.388)" fill="#161615"/>
    <rect id="Rectangle_16" data-name="Rectangle 16" width="3.808" height="16.497" transform="translate(242.757 370.672)" fill="#161615"/>
    <path id="Path_84" data-name="Path 84" d="M310.5,460.726c0,2.217-.492,5.938-3.79,5.938-1.628,0-3.793-.5-3.793-4.771v-4.607a4.165,4.165,0,0,0-1.278-3.456c-.91-.74-2.242-.9-4.057-.534l-.523.11v3.215l.745-.1c.988-.133,1.164-.031,1.188-.007.054.046.117.277.117,1.12v4.293c0,2.847.707,4.993,2.1,6.378a6.782,6.782,0,0,0,4.977,1.791h.08a5.73,5.73,0,0,0,4.361-1.662v1.447a4.193,4.193,0,0,1-1.94,3.95c-2.2,1.272-5.72.578-8.057-.766l-.889-.511-.322,3.533.375.208a13.263,13.263,0,0,0,6.356,1.719,8.928,8.928,0,0,0,4.54-1.141c1.621-.953,3.555-2.942,3.555-6.992V453.251H310.5Z" transform="translate(-48.956 -82.612)" fill="#161615"/>
    <path id="Path_85" data-name="Path 85" d="M351.486,452.622c-4.311,0-8.674,2.95-8.674,8.588a8.266,8.266,0,0,0,2.722,6.427,8.952,8.952,0,0,0,5.933,2.135c4.319,0,8.692-2.939,8.692-8.562C360.159,455.572,355.8,452.622,351.486,452.622Zm4.9,8.588a4.886,4.886,0,1,1-4.88-5.142A4.809,4.809,0,0,1,356.382,461.21Z" transform="translate(-75.012 -82.338)" fill="#161615"/>
    <path id="Path_86" data-name="Path 86" d="M398.976,453.537a6.567,6.567,0,0,0-3.953-1.262,5.732,5.732,0,0,0-4.325,1.591,2.415,2.415,0,0,0-.623-.769c-1.037-.837-2.632-.686-3.907-.465l-.556.1.059,2.909.7-.062c.678-.049.88.059.938.111.177.164.177.8.177,1.318v12.3h3.746V459.179a3.432,3.432,0,0,1,3.538-3.381,5.283,5.283,0,0,1,2.864.9l.744.478.97-3.371Z" transform="translate(-99.384 -82.14)" fill="#161615"/>
    <path id="Path_87" data-name="Path 87" d="M312.3,355.292c-2.883-.42-3.678-.772-3.7-1.655a1.145,1.145,0,0,1,.33-.89,4.332,4.332,0,0,1,2.991-.911c1.583,0,3.286.545,3.286,1.741v.657h3.661l.021-.636a4.049,4.049,0,0,0-1.168-3.009,8.187,8.187,0,0,0-5.8-2.026,8.02,8.02,0,0,0-5.751,1.987c-.052.053-.087.115-.135.17v5.692c1.488,1.571,4.176,1.912,5.852,2.1,3.007.442,3.7.791,3.7,1.84-.073,1.46-1.935,2.123-3.634,2.123-1.628,0-3.573-.545-3.7-2.079l-.05-.6h-1.155a3.71,3.71,0,0,1,.819,2.307v2.925a10.314,10.314,0,0,0,4.1.755c4.453-.121,7.331-2.238,7.331-5.376C319.411,356.2,315.461,355.7,312.3,355.292Z" transform="translate(-54.07 -23.083)" fill="#161615"/>
    <rect id="Rectangle_17" data-name="Rectangle 17" width="7.121" height="3.123" transform="translate(254.267 344.223)" fill="#fda328"/>
    <rect id="Rectangle_18" data-name="Rectangle 18" width="26.057" height="3.124" transform="translate(273.907 362.782)" fill="#fda328"/>
    <path id="Path_88" data-name="Path 88" d="M281.278,362.056c-.177-.162-.177-.815-.177-1.447v-7.9l-3.02,3.02a1.455,1.455,0,0,1-.695.367v.89c0,3.163-1.547,5.052-4.14,5.052-3.121,0-4.232-2.61-4.232-5.034.083-3.246,1.972-5.106,5.18-5.106.037,0,.077.011.115.012l2.989-2.989a15.12,15.12,0,0,0-2.948-.359c-5.543,0-9.046,3.222-9.145,8.423,0,4.3,2.34,8.642,7.568,8.642a6.768,6.768,0,0,0,5.168-2.1,2.686,2.686,0,0,0,.817,1.233,4.3,4.3,0,0,0,3.628.57l.545-.1V362.1l-.715.062C281.535,362.215,281.334,362.107,281.278,362.056Z" transform="translate(-30.82 -23.08)" fill="#161615"/>
    <path id="Path_89" data-name="Path 89" d="M237.126,353.15c0,2.747.783,4.71,2.324,5.836A5.864,5.864,0,0,0,242.976,360a12.64,12.64,0,0,0,3.813-.671l.528-.17-.476-3.345-.766.283c-1.77.65-3.162.686-4.024.084-.762-.529-1.149-1.572-1.149-3.1V346.3h5.584v-3.115H240.9v-4.733H237.57l-.252,4.733h-3.442v2.926l3.25.158Z" transform="translate(-12.98 -17.324)" fill="#161615"/>
  </g>
</svg>
