<svg xmlns="http://www.w3.org/2000/svg" width="16.536" height="16.311" viewBox="0 0 16.536 16.311">
  <g id="Group_370" data-name="Group 370" transform="translate(-194 -412)">
    <g id="Group_369" data-name="Group 369" transform="translate(194 412)">
      <rect id="Rectangle_299" data-name="Rectangle 299" width="1.035" height="12.931" transform="translate(15.804) rotate(45)" fill="#100f0c"/>
      <path id="Path_650" data-name="Path 650" d="M1190.769,340.236v7.748a1.494,1.494,0,0,1-1.492,1.492h-8.944a1.494,1.494,0,0,1-1.492-1.492V339.04a1.494,1.494,0,0,1,1.492-1.492h7.911v-1.033h-7.911a2.528,2.528,0,0,0-2.525,2.525v8.944a2.528,2.528,0,0,0,2.525,2.525h8.944a2.528,2.528,0,0,0,2.525-2.525v-7.748Z" transform="translate(-1177.808 -334.198)" fill="#100f0c"/>
    </g>
  </g>
</svg>
