<svg xmlns="http://www.w3.org/2000/svg" width="177.64" height="166.865" viewBox="0 0 177.64 166.865">
  <g id="Group_24" data-name="Group 24" transform="translate(-202.97 -337.138)">
    <rect id="Rectangle_21" data-name="Rectangle 21" width="8.556" height="37.057" transform="translate(305.414 347.699)" fill="#fff"/>
    <path id="Path_168" data-name="Path 168" d="M328.579,370.163c0,6.171,1.758,10.582,5.222,13.11a13.171,13.171,0,0,0,7.923,2.286,28.453,28.453,0,0,0,8.57-1.506l1.187-.381-1.077-7.517-1.718.636c-3.975,1.461-7.11,1.541-9.041.191-1.711-1.19-2.581-3.534-2.581-6.957V354.768h12.551v-7H337.065V337.138H329.58l-.566,10.634h-7.739v6.572l7.3.355Z" transform="translate(-3.865 0)" fill="#fff"/>
    <path id="Path_169" data-name="Path 169" d="M240.763,432.744c-.4-.364-.4-1.83-.4-3.25V406.135l-.871-.392a36.568,36.568,0,0,0-14.288-3.326c-12.455,0-20.329,7.24-20.552,18.924,0,9.665,5.259,19.415,17.008,19.415,4.832,0,8.922-1.709,11.609-4.717a6.068,6.068,0,0,0,1.836,2.776c1.784,1.5,4.455,1.923,8.146,1.276l1.224-.214v-7.031l-1.6.139C241.344,433.1,240.887,432.859,240.763,432.744Zm-15.916-22.832a19.369,19.369,0,0,1,7.176,1.471v9.959c0,7.107-3.475,11.35-9.3,11.35-7.023,0-9.514-6.114-9.514-11.309C213.4,414.091,217.639,409.912,224.847,409.912Z" transform="translate(-0.055 -2.133)" fill="#fff"/>
    <path id="Path_170" data-name="Path 170" d="M279.433,404.817a14.754,14.754,0,0,0-8.882-2.835c-4.189,0-7.484,1.225-9.716,3.574a5.415,5.415,0,0,0-1.4-1.727c-2.323-1.881-5.912-1.541-8.778-1.045l-1.25.214.133,6.535,1.573-.139c1.526-.109,1.977.133,2.107.249.4.37.4,1.807.4,2.962v27.64h8.417V417.494a7.711,7.711,0,0,1,7.95-7.6,11.871,11.871,0,0,1,6.435,2.031L278.09,413l2.179-7.574Z" transform="translate(-1.517 -2.119)" fill="#fff"/>
    <path id="Path_171" data-name="Path 171" d="M315.2,432.744c-.4-.364-.4-1.83-.4-3.25V406.135l-.872-.392a36.572,36.572,0,0,0-14.294-3.326c-12.452,0-20.324,7.24-20.546,18.924,0,9.665,5.256,19.415,17,19.415,4.832,0,8.922-1.709,11.609-4.717a6.042,6.042,0,0,0,1.836,2.77c1.789,1.507,4.462,1.929,8.152,1.282l1.224-.214v-7.031l-1.6.139C315.78,433.1,315.329,432.859,315.2,432.744Zm-15.916-22.832a19.424,19.424,0,0,1,7.17,1.465v9.964c0,7.107-3.475,11.35-9.3,11.35-7.011,0-9.508-5.865-9.508-11.309C287.835,414.091,292.078,409.912,299.286,409.912Z" transform="translate(-2.487 -2.133)" fill="#fff"/>
    <path id="Path_172" data-name="Path 172" d="M243.69,489.386c-.211-.179-.333-.889-.364-2.061V467.412c0-9.727-5.978-16.015-15.23-16.015-4.887,0-8.7,1.426-11.24,4.168a6.564,6.564,0,0,0-1.919-2.494c-2.05-1.616-5.043-2-8.668-1.138l-1.155.278.125,6.454,1.631-.208c1.8-.23,2.185.029,2.242.075.364.323.358,2.222.352,3.9l0,26.8h8.556V467.695c0-5.265,3.452-8.8,8.59-8.8,4.884,0,8.163,3.423,8.163,8.521v20.057c0,3.631.892,6.125,2.725,7.638a7.731,7.731,0,0,0,5.146,1.587,19.608,19.608,0,0,0,3.742-.4l1.2-.23v-6.813l-1.674.225C244.221,489.7,243.788,489.46,243.69,489.386Z" transform="translate(-0.07 -3.733)" fill="#fff"/>
    <rect id="Rectangle_22" data-name="Rectangle 22" width="8.556" height="37.063" transform="translate(252.084 448.45)" fill="#fff"/>
    <path id="Path_173" data-name="Path 173" d="M296.348,468.914c0,4.983-1.106,13.341-8.515,13.341-3.657,0-8.521-1.113-8.521-10.72V461.184c0-3.66-.938-6.2-2.872-7.765-2.044-1.663-5.037-2.032-9.115-1.2l-1.175.248v7.221l1.674-.224c2.22-.3,2.615-.07,2.67-.017.121.1.263.623.263,2.517v9.646c0,6.4,1.587,11.217,4.721,14.329,2.691,2.673,6.455,4.024,11.183,4.024h.179c4.156,0,7.4-1.229,9.8-3.736v3.25c0,4.215-1.466,7.2-4.359,8.873-4.95,2.858-12.85,1.3-18.1-1.72l-2-1.149-.724,7.938.843.468a29.809,29.809,0,0,0,14.28,3.862,20.057,20.057,0,0,0,10.2-2.563c3.643-2.142,7.987-6.61,7.987-15.708V452.12h-8.417Z" transform="translate(-2.064 -3.746)" fill="#fff"/>
    <path id="Path_174" data-name="Path 174" d="M331.393,451.308c-9.684,0-19.487,6.627-19.487,19.293,0,5.929,2.115,10.922,6.116,14.438a20.107,20.107,0,0,0,13.33,4.8c9.7,0,19.527-6.6,19.527-19.235C350.88,457.935,341.077,451.308,331.393,451.308Zm11,19.293c0,7.973-5.684,11.6-10.963,11.6s-10.964-3.631-10.964-11.6c0-7.938,5.684-11.552,10.964-11.552S342.393,462.663,342.393,470.6Z" transform="translate(-3.559 -3.73)" fill="#fff"/>
    <path id="Path_175" data-name="Path 175" d="M384.731,453.8a14.753,14.753,0,0,0-8.882-2.834c-4.189,0-7.484,1.224-9.716,3.573a5.421,5.421,0,0,0-1.4-1.727c-2.329-1.882-5.911-1.541-8.778-1.045l-1.25.214.134,6.535,1.573-.138c1.524-.11,1.977.132,2.107.248.4.37.4,1.807.4,2.962v27.641h8.417V466.474a7.711,7.711,0,0,1,7.949-7.6,11.863,11.863,0,0,1,6.435,2.032l1.671,1.074,2.179-7.574Z" transform="translate(-4.958 -3.719)" fill="#fff"/>
    <path id="Path_176" data-name="Path 176" d="M289.2,362.367c-6.477-.944-8.264-1.735-8.309-3.718a2.569,2.569,0,0,1,.741-2c1.2-1.261,3.773-2.046,6.72-2.046,3.556,0,7.384,1.224,7.384,3.911v1.478h8.227l.045-1.429a9.1,9.1,0,0,0-2.623-6.761c-2.76-2.849-7.632-4.552-13.033-4.552-5.456,0-10.163,1.628-12.92,4.466-.116.118-.194.258-.3.381v12.789c3.343,3.531,9.383,4.3,13.148,4.728,6.754.993,8.307,1.779,8.31,4.133-.165,3.279-4.347,4.769-8.166,4.769-3.657,0-8.028-1.224-8.313-4.67L280,372.49h-2.6a8.336,8.336,0,0,1,1.84,5.185v6.57a23.178,23.178,0,0,0,9.223,1.7c10-.272,16.47-5.028,16.47-12.077C305.18,364.416,296.307,363.28,289.2,362.367Z" transform="translate(-2.358 -0.33)" fill="#fff"/>
    <rect id="Rectangle_23" data-name="Rectangle 23" width="15.999" height="7.015" transform="translate(277.942 389.027)" fill="#fff"/>
    <rect id="Rectangle_24" data-name="Rectangle 24" width="58.542" height="7.018" transform="translate(322.068 430.723)" fill="#fff"/>
    <path id="Path_177" data-name="Path 177" d="M270.409,377.57c-.4-.364-.4-1.83-.4-3.25V356.56l-6.787,6.785a3.257,3.257,0,0,1-1.561.824v2c0,7.107-3.476,11.351-9.3,11.351-7.011,0-9.508-5.866-9.508-11.31.188-7.291,4.431-11.471,11.639-11.471.083,0,.173.026.257.027l6.717-6.714a33.922,33.922,0,0,0-6.622-.807c-12.452,0-20.325,7.239-20.547,18.924,0,9.665,5.256,19.415,17,19.415,4.832,0,8.923-1.709,11.61-4.717a6.031,6.031,0,0,0,1.836,2.771c1.79,1.506,4.462,1.928,8.152,1.282l1.224-.214v-7.031l-1.6.138C270.987,377.928,270.537,377.686,270.409,377.57Z" transform="translate(-1.024 -0.33)" fill="#fff"/>
    <path id="Path_178" data-name="Path 178" d="M210.273,370.163c0,6.171,1.758,10.582,5.222,13.11a13.168,13.168,0,0,0,7.92,2.286,28.417,28.417,0,0,0,8.567-1.506l1.187-.381-1.068-7.517-1.721.636c-3.978,1.461-7.1,1.541-9.041.191-1.711-1.19-2.58-3.534-2.58-6.957V354.768H231.3v-7H218.76V337.138h-7.491l-.566,10.634H202.97v6.572l7.3.355Z" transform="translate(0 0)" fill="#fff"/>
  </g>
</svg>
