<svg xmlns="http://www.w3.org/2000/svg" width="112.041" height="75.582" viewBox="0 0 112.041 75.582">
  <g id="Group_363" data-name="Group 363" transform="translate(-63.696 -35.172)">
    <g id="Group_360" data-name="Group 360">
      <g id="Group_359" data-name="Group 359">
        <g id="Group_357" data-name="Group 357">
          <g id="Group_356" data-name="Group 356">
            <path id="Path_624" data-name="Path 624" d="M135.212,99.089a7.307,7.307,0,0,1,1.275-.815,7.085,7.085,0,0,1,1.319-.487L116.972,55.431a1.433,1.433,0,0,0-2.306-.4,2.365,2.365,0,0,0-.556.187l-10.984,5.4a2.476,2.476,0,1,0,2.186,4.443l10.6-5.211Z" fill="#562c0c"/>
            <path id="Path_625" data-name="Path 625" d="M173.648,86.243l-28.495,14.014a6.967,6.967,0,0,1,1.278,2.6l28.5-14.017a1.45,1.45,0,0,0-1.28-2.6Z" fill="#562c0c"/>
          </g>
          <path id="Path_626" data-name="Path 626" d="M136.89,99.214a5.984,5.984,0,1,0,8.011,2.73A5.993,5.993,0,0,0,136.89,99.214Zm4.007,8.152a3.1,3.1,0,1,1,1.413-4.149A3.1,3.1,0,0,1,140.9,107.366Z" fill="#562c0c"/>
        </g>
        <g id="Group_358" data-name="Group 358">
          <rect id="Rectangle_234" data-name="Rectangle 234" width="33.344" height="16.278" transform="translate(123.71 63.666) rotate(-26.188)" fill="#c18b52"/>
          <rect id="Rectangle_235" data-name="Rectangle 235" width="26.48" height="16.928" transform="translate(115.445 46.863) rotate(-26.201)" fill="#c18b52"/>
          <path id="Path_627" data-name="Path 627" d="M131.155,80.191l8.114,16.494a9.578,9.578,0,0,1,5.677,1.806L171.561,85.4l-9.937-20.2Z" fill="#c18b52"/>
        </g>
        <rect id="Rectangle_236" data-name="Rectangle 236" width="4.429" height="9.387" transform="translate(125.656 41.782) rotate(-26.915)" fill="#562c0c"/>
        <rect id="Rectangle_237" data-name="Rectangle 237" width="4.43" height="9.385" transform="matrix(0.891, -0.453, 0.453, 0.891, 136.896, 57.115)" fill="#562c0c"/>
        <rect id="Rectangle_238" data-name="Rectangle 238" width="4.43" height="9.387" transform="matrix(0.892, -0.453, 0.453, 0.892, 144.821, 73.087)" fill="#562c0c"/>
      </g>
    </g>
    <g id="Group_362" data-name="Group 362">
      <g id="Group_361" data-name="Group 361">
        <path id="Path_628" data-name="Path 628" d="M73.825,94.47V76.945a6.914,6.914,0,0,1,.082-1.1V58.477a4.973,4.973,0,0,1,5.053-4.888h5.482a5.11,5.11,0,0,1,3.846,1.717c.717.6,1.391,1.312,2.026,1.93q3.167,3.069,6.334,6.145,2.638-1.541,5.273-3.089c1.932-1.129,3.824-2.147,5.753-.275,1.847,1.789.483,4.31-1.316,5.359Q102.93,67.383,99.5,69.39c-1.746,1.021-3.834,2.263-5.652.5Q91.84,67.946,89.834,66c-.112-.11-.223-.217-.337-.327v.738c.114.107.225.216.337.324q2.005,1.944,4.013,3.893a3.816,3.816,0,0,0,.462.379l.006,0a3.117,3.117,0,0,0,2.95.25.161.161,0,0,1,.037-.019c.088-.027.176-.061.262-.094.027-.014.058-.024.087-.036.065-.031.137-.06.2-.093.037-.013.068-.031.1-.048.531-.246,1.05-.554,1.539-.837q3.431-2.01,6.859-4.016a4.3,4.3,0,0,0,.643-.457,2.685,2.685,0,0,1,.553.662,2.735,2.735,0,0,1-.965,3.746l-8.973,5.254a2.935,2.935,0,0,1-3.361-.341L89.5,70.364v7.03a4.781,4.781,0,0,1-.171,1.258l5.722,6.488a3.934,3.934,0,0,1,1.193,2.887c0,.066.008.126.008.192v18.562c0,2.67-1.367,3.972-3.909,3.972-2.321,0-3.366-1.442-3.366-3.972V89.249l-6.146-6.963H81.1V95.507c0,.059-.006.126-.01.189A3.942,3.942,0,0,1,79.9,98.584L70.333,109.43a3.912,3.912,0,0,1-5.523.343c-1.621-1.431-1.364-3.536.067-5.155Z" fill="#211309"/>
        <path id="Path_629" data-name="Path 629" d="M81.772,52.469a7.642,7.642,0,1,1,7.637-7.636A7.638,7.638,0,0,1,81.772,52.469Z" fill="#211309"/>
      </g>
    </g>
  </g>
</svg>
