<svg xmlns="http://www.w3.org/2000/svg" width="233.152" height="68.332" viewBox="0 0 233.152 68.332">
  <g id="Group_330" data-name="Group 330" transform="translate(0)">
    <g id="Group_329" data-name="Group 329" transform="translate(0 0)">
      <g id="Group_283" data-name="Group 283">
        <g id="Group_274" data-name="Group 274" transform="translate(10.223 45.038)">
          <path id="Path_448" data-name="Path 448" d="M1721.451,1542.286h13.238a.467.467,0,0,0,0-.934h-13.048l-3.86-3.764a.467.467,0,0,0-.652.669l4,3.9A.468.468,0,0,0,1721.451,1542.286Z" transform="translate(-1716.987 -1537.456)" fill="#101011"/>
        </g>
        <rect id="Rectangle_170" data-name="Rectangle 170" width="1.105" height="3.903" rx="0.552" transform="translate(1.693 46.977)" fill="#202223"/>
        <rect id="Rectangle_171" data-name="Rectangle 171" width="1.105" height="0.953" transform="translate(1.693 46.977)" fill="#101111"/>
        <g id="Group_275" data-name="Group 275" transform="translate(75.363 52.644)">
          <path id="Path_449" data-name="Path 449" d="M1237.944,1602.062a.466.466,0,0,0,.144-.023l13.625-4.4a.467.467,0,0,0-.287-.889l-13.625,4.4a.467.467,0,0,0,.143.912Z" transform="translate(-1237.477 -1596.732)" fill="#101011"/>
        </g>
        <path id="Path_450" data-name="Path 450" d="M1929.5,1493.13h0a.6.6,0,0,0,.6-.6v-2.573a.6.6,0,0,0-.6-.6h0a.6.6,0,0,0-.6.6v2.573A.6.6,0,0,0,1929.5,1493.13Z" transform="translate(-1928.899 -1450.493)" fill="#53585b"/>
        <path id="Path_451" data-name="Path 451" d="M1929.5,1427.34h0a.6.6,0,0,0,.6-.6v-2.573a.6.6,0,0,0-.6-.6h0a.6.6,0,0,0-.6.6v2.573A.6.6,0,0,0,1929.5,1427.34Z" transform="translate(-1928.899 -1393.145)" fill="#53585b"/>
        <path id="Path_452" data-name="Path 452" d="M1929.5,1314.057h0a.6.6,0,0,0,.6-.6v-2.573a.6.6,0,0,0-.6-.6h0a.6.6,0,0,0-.6.6v2.573A.6.6,0,0,0,1929.5,1314.057Z" transform="translate(-1928.899 -1294.398)" fill="#53585b"/>
        <path id="Path_453" data-name="Path 453" d="M1929.5,1256.486h0c.331,0,.6,2.3.6,1.967v-2.573a.6.6,0,0,0-.6-.6h0a.6.6,0,0,0-.6.6v2.573C1928.9,1258.784,1929.167,1256.486,1929.5,1256.486Z" transform="translate(-1928.899 -1246.452)" fill="#53585b"/>
        <path id="Path_454" data-name="Path 454" d="M1929.5,1222.979h0a.6.6,0,0,0,.6-.6v-2.573a.6.6,0,0,0-.6-.6h0a.6.6,0,0,0-.6.6v2.573A.6.6,0,0,0,1929.5,1222.979Z" transform="translate(-1928.899 -1215.007)" fill="#53585b"/>
        <g id="Group_276" data-name="Group 276" transform="translate(172.074 49.114)">
          <path id="Path_455" data-name="Path 455" d="M548.8,1572.787H552.2a2.41,2.41,0,0,0,2.407-2.407v-.691a.467.467,0,1,0-.934,0v.691a1.474,1.474,0,0,1-1.473,1.473H548.8a.467.467,0,0,0,0,.934Z" transform="translate(-548.332 -1569.222)" fill="#202123"/>
        </g>
        <path id="Path_456" data-name="Path 456" d="M444.479,1556.278h169.3v2.528h-165.7Z" transform="translate(-422.099 -1508.825)" fill="#2b2e30"/>
        <path id="Path_457" data-name="Path 457" d="M444.479,1556.278h169.3v.609H445.345Z" transform="translate(-422.099 -1508.825)" fill="#191b1c"/>
        <rect id="Rectangle_172" data-name="Rectangle 172" width="31.245" height="2.44" transform="translate(99.027 49.981)" fill="#202223"/>
        <rect id="Rectangle_173" data-name="Rectangle 173" width="31.245" height="0.596" transform="translate(99.027 49.981)" fill="#121414"/>
        <rect id="Rectangle_174" data-name="Rectangle 174" width="31.245" height="2.44" transform="translate(99.027 56.765)" fill="#202223"/>
        <rect id="Rectangle_175" data-name="Rectangle 175" width="31.245" height="0.47" transform="translate(99.027 58.736)" fill="#121414"/>
        <g id="Group_277" data-name="Group 277" transform="translate(100.046 52.421)">
          <rect id="Rectangle_176" data-name="Rectangle 176" width="0.932" height="4.345" transform="translate(28.274)" fill="#141516"/>
          <rect id="Rectangle_177" data-name="Rectangle 177" width="0.932" height="4.345" transform="translate(0)" fill="#141516"/>
        </g>
        <g id="Group_278" data-name="Group 278" transform="translate(100.046 52.421)">
          <rect id="Rectangle_178" data-name="Rectangle 178" width="0.932" height="0.69" transform="translate(28.274)" fill="#050505"/>
          <rect id="Rectangle_179" data-name="Rectangle 179" width="0.932" height="0.69" transform="translate(0)" fill="#050505"/>
        </g>
        <rect id="Rectangle_180" data-name="Rectangle 180" width="2.223" height="10.074" transform="translate(134.626 49.981)" fill="#141516"/>
        <rect id="Rectangle_181" data-name="Rectangle 181" width="2.223" height="0.853" transform="translate(134.626 49.981)" fill="#090a0a"/>
        <path id="Path_458" data-name="Path 458" d="M859.708,1664.43h5.32l-1.323-1.473H861.03Z" transform="translate(-726.631 -1601.815)" fill="#303233"/>
        <rect id="Rectangle_182" data-name="Rectangle 182" width="14.253" height="1.199" transform="translate(160.985 49.981)" fill="#2b2e30"/>
        <path id="Path_459" data-name="Path 459" d="M572.6,1585.32h14.253l-3.164,1.7h-7.926Z" transform="translate(-411.62 -1534.141)" fill="#191b1c"/>
        <g id="Group_279" data-name="Group 279" transform="translate(28.68 47.916)">
          <rect id="Rectangle_183" data-name="Rectangle 183" width="1.765" height="1.415" rx="0.708" transform="translate(159.73)" fill="#ffa143"/>
          <rect id="Rectangle_184" data-name="Rectangle 184" width="1.765" height="1.415" rx="0.708" transform="translate(119.797)" fill="#ffa143"/>
          <rect id="Rectangle_185" data-name="Rectangle 185" width="1.765" height="1.415" rx="0.708" transform="translate(79.865)" fill="#ffa143"/>
          <rect id="Rectangle_186" data-name="Rectangle 186" width="1.765" height="1.415" rx="0.708" transform="translate(39.932)" fill="#ffa143"/>
          <rect id="Rectangle_187" data-name="Rectangle 187" width="1.765" height="1.415" rx="0.708" transform="translate(0)" fill="#ffa143"/>
        </g>
        <path id="Path_460" data-name="Path 460" d="M1266.265,1575.977l-4.246,3.846h-64.99v-3.846Zm-12.822,1.923a1.066,1.066,0,0,0,1.066,1.066h4.163a1.066,1.066,0,0,0,1.066-1.066h0a1.066,1.066,0,0,0-1.066-1.066h-4.163a1.065,1.065,0,0,0-1.066,1.066Z" transform="translate(-1171.153 -1525.996)" fill="#202223"/>
        <rect id="Rectangle_188" data-name="Rectangle 188" width="34.768" height="1.399" transform="translate(36.367 55.076)" fill="#101011"/>
        <rect id="Rectangle_189" data-name="Rectangle 189" width="16.75" height="6.094" rx="3.047" transform="translate(5.63 50.13)" fill="#132228"/>
        <rect id="Rectangle_190" data-name="Rectangle 190" width="2.764" height="2.678" transform="translate(12.622 47.453)" fill="#202223"/>
        <rect id="Rectangle_191" data-name="Rectangle 191" width="2.764" height="0.609" transform="translate(12.622 47.453)" fill="#191b1c"/>
        <rect id="Rectangle_192" data-name="Rectangle 192" width="4.564" height="0.649" transform="translate(11.723 56.225)" fill="#202223"/>
        <path id="Path_461" data-name="Path 461" d="M871.352,1642.579h0a1.338,1.338,0,0,1,1.338,1.338v1.277h-2.675v-1.277A1.338,1.338,0,0,1,871.352,1642.579Z" transform="translate(-735.614 -1584.052)" fill="#202223"/>
        <rect id="Rectangle_193" data-name="Rectangle 193" width="189.956" height="44.45" transform="translate(1.146 3.003)" fill="#fafafa"/>
        <rect id="Rectangle_194" data-name="Rectangle 194" width="187.426" height="0.89" rx="0.445" transform="translate(2.973)" fill="#909599"/>
        <rect id="Rectangle_195" data-name="Rectangle 195" width="1.093" height="47.008" transform="translate(0.6 0.445)" fill="#909599"/>
        <rect id="Rectangle_196" data-name="Rectangle 196" width="188.831" height="3.7" transform="translate(1.693 43.753)" fill="#f2f2f2"/>
        <rect id="Rectangle_197" data-name="Rectangle 197" width="188.831" height="1.439" transform="translate(1.693 46.014)" fill="#b1b8bc"/>
        <rect id="Rectangle_198" data-name="Rectangle 198" width="191.08" height="2.558" transform="translate(0.6 0.445)" fill="#e1e9ef"/>
        <path id="Path_462" data-name="Path 462" d="M451.424,1192.438H637.433a.458.458,0,0,0,.458-.458h0a.458.458,0,0,0-.458-.458H451.424a.458.458,0,0,0-.458.458h0A.458.458,0,0,0,451.424,1192.438Z" transform="translate(-447.044 -1190.875)" fill="#fff"/>
        <rect id="Rectangle_199" data-name="Rectangle 199" width="191.08" height="0.604" transform="translate(0.6 2.399)" fill="#c8d1d6"/>
        <rect id="Rectangle_200" data-name="Rectangle 200" width="1.155" height="44.45" transform="translate(190.524 3.003)" fill="#909599"/>
        <g id="Group_280" data-name="Group 280" transform="translate(36.413 1.958)">
          <path id="Path_463" data-name="Path 463" d="M1651.561,1202.62h0a.2.2,0,0,0,.2-.2v-.483a.2.2,0,0,0-.2-.2h0a.2.2,0,0,0-.2.2v.483A.2.2,0,0,0,1651.561,1202.62Z" transform="translate(-1651.361 -1201.737)" fill="#696d70"/>
        </g>
        <g id="Group_281" data-name="Group 281" transform="translate(36.541 1.777)">
          <path id="Path_464" data-name="Path 464" d="M1650.56,1201.209h0a.2.2,0,0,0,.2-.2v-.483a.2.2,0,0,0-.2-.2h0a.2.2,0,0,0-.2.2v.483A.2.2,0,0,0,1650.56,1201.209Z" transform="translate(-1650.36 -1200.326)" fill="#909599"/>
        </g>
        <rect id="Rectangle_201" data-name="Rectangle 201" width="1.155" height="0.74" transform="translate(190.524 3.003)" fill="#777c7f"/>
        <rect id="Rectangle_202" data-name="Rectangle 202" width="1.093" height="0.927" transform="translate(0.6 3.003)" fill="#777c7f"/>
        <circle id="Ellipse_36" data-name="Ellipse 36" cx="0.554" cy="0.554" r="0.554" transform="translate(135.183 59.116)" fill="#303233"/>
        <g id="Group_282" data-name="Group 282" transform="translate(5.63 50.712)">
          <path id="Path_465" data-name="Path 465" d="M1780.184,1582.671a2.072,2.072,0,0,1-1.1-.292,1.768,1.768,0,0,0-1.77,0,2.236,2.236,0,0,1-2.209,0,1.768,1.768,0,0,0-1.77,0,2.236,2.236,0,0,1-2.209,0,1.768,1.768,0,0,0-1.771,0,2.236,2.236,0,0,1-2.209,0,1.768,1.768,0,0,0-1.771,0,2.073,2.073,0,0,1-1.105.292,2.4,2.4,0,0,1-.414-.034,1.606,1.606,0,0,1,.083-.459,1.934,1.934,0,0,0,.33.026,1.608,1.608,0,0,0,.885-.238,2.235,2.235,0,0,1,2.21,0,1.768,1.768,0,0,0,1.771,0,2.234,2.234,0,0,1,2.209,0,1.769,1.769,0,0,0,1.771,0,2.232,2.232,0,0,1,2.209,0,1.769,1.769,0,0,0,1.771,0,2.234,2.234,0,0,1,2.209,0,1.607,1.607,0,0,0,.885.238,1.929,1.929,0,0,0,.33-.026,1.589,1.589,0,0,1,.083.459A2.392,2.392,0,0,1,1780.184,1582.671Z" transform="translate(-1763.849 -1581.674)" fill="#0b1214"/>
          <path id="Path_466" data-name="Path 466" d="M1764.857,1612.871a1.608,1.608,0,0,0,.885-.238,2.234,2.234,0,0,1,2.21,0,1.769,1.769,0,0,0,1.771,0,2.234,2.234,0,0,1,2.209,0,1.769,1.769,0,0,0,1.77,0,2.232,2.232,0,0,1,2.209,0,1.769,1.769,0,0,0,1.77,0,2.234,2.234,0,0,1,2.209,0,1.607,1.607,0,0,0,.885.238,1.918,1.918,0,0,0,.326-.025,1.6,1.6,0,0,1-.276.492h-.05a2.071,2.071,0,0,1-1.1-.292,1.768,1.768,0,0,0-1.771,0,2.236,2.236,0,0,1-2.209,0,1.768,1.768,0,0,0-1.77,0,2.236,2.236,0,0,1-2.209,0,1.769,1.769,0,0,0-1.771,0,2.236,2.236,0,0,1-2.209,0,1.768,1.768,0,0,0-1.771,0,2.072,2.072,0,0,1-1.1.292h-.051a1.6,1.6,0,0,1-.276-.492A1.922,1.922,0,0,0,1764.857,1612.871Z" transform="translate(-1764.441 -1608.406)" fill="#0b1214"/>
          <path id="Path_467" data-name="Path 467" d="M1764.254,1602.648a1.61,1.61,0,0,0,.885-.237,2.235,2.235,0,0,1,2.209,0,1.77,1.77,0,0,0,1.771,0,2.235,2.235,0,0,1,2.209,0,1.769,1.769,0,0,0,1.77,0,2.235,2.235,0,0,1,2.209,0,1.769,1.769,0,0,0,1.77,0,2.235,2.235,0,0,1,2.209,0,1.609,1.609,0,0,0,.885.237,1.8,1.8,0,0,0,.415-.043v.476a2.376,2.376,0,0,1-.415.034,2.069,2.069,0,0,1-1.1-.292,1.769,1.769,0,0,0-1.771,0,2.234,2.234,0,0,1-2.209,0,1.769,1.769,0,0,0-1.77,0,2.234,2.234,0,0,1-2.209,0,1.77,1.77,0,0,0-1.771,0,2.234,2.234,0,0,1-2.209,0,1.769,1.769,0,0,0-1.771,0,2.07,2.07,0,0,1-1.1.292,2.378,2.378,0,0,1-.415-.034v-.476A1.8,1.8,0,0,0,1764.254,1602.648Z" transform="translate(-1763.839 -1599.495)" fill="#0b1214"/>
          <path id="Path_468" data-name="Path 468" d="M1764.254,1592.426a1.609,1.609,0,0,0,.885-.237,2.234,2.234,0,0,1,2.209,0,1.77,1.77,0,0,0,1.771,0,2.234,2.234,0,0,1,2.209,0,1.769,1.769,0,0,0,1.77,0,2.234,2.234,0,0,1,2.209,0,1.769,1.769,0,0,0,1.77,0,2.234,2.234,0,0,1,2.209,0,1.609,1.609,0,0,0,.885.237,1.8,1.8,0,0,0,.415-.043v.476a2.376,2.376,0,0,1-.415.034,2.068,2.068,0,0,1-1.1-.292,1.769,1.769,0,0,0-1.771,0,2.235,2.235,0,0,1-2.209,0,1.769,1.769,0,0,0-1.77,0,2.235,2.235,0,0,1-2.209,0,1.77,1.77,0,0,0-1.771,0,2.235,2.235,0,0,1-2.209,0,1.769,1.769,0,0,0-1.771,0,2.069,2.069,0,0,1-1.1.292,2.379,2.379,0,0,1-.415-.034v-.476A1.791,1.791,0,0,0,1764.254,1592.426Z" transform="translate(-1763.839 -1590.584)" fill="#0b1214"/>
        </g>
      </g>
      <g id="Group_312" data-name="Group 312" transform="translate(147.744 7.626)">
        <path id="Path_469" data-name="Path 469" d="M211.655,1564.993l-21.115.586,1.834-13.7,18.2-1.161Z" transform="translate(-135.134 -1511.606)"/>
        <g id="Group_288" data-name="Group 288" transform="translate(57.286 42.919)">
          <path id="Path_470" data-name="Path 470" d="M209.108,1595.3a.328.328,0,0,1-.087-.243,8.027,8.027,0,0,1,.111-.937.329.329,0,0,1,.382-.266l.007,0c.007-.034.015-.067.023-.1l-.007,0a.329.329,0,0,1-.226-.407,7.929,7.929,0,0,1,.313-.891.329.329,0,0,1,.431-.176l.007,0,.045-.093-.007,0a.329.329,0,0,1-.132-.446,8.031,8.031,0,0,1,.5-.8.329.329,0,0,1,.459-.079l.006,0,.064-.081-.006,0a.329.329,0,0,1-.033-.464,8.063,8.063,0,0,1,.659-.675.329.329,0,0,1,.465.022l0,.006.08-.066,0-.005a.329.329,0,0,1,.068-.461,8.026,8.026,0,0,1,.79-.517.329.329,0,0,1,.449.122l0,.006.092-.047,0-.006a.329.329,0,0,1,.166-.435,7.981,7.981,0,0,1,.883-.334.329.329,0,0,1,.412.217l0,.007.1-.026,0-.007a.329.329,0,0,1,.257-.389,8.044,8.044,0,0,1,.934-.133.329.329,0,0,1,.355.3s0,0,0,.007l.1,0s0,0,0-.007a.33.33,0,0,1,.334-.324,8.077,8.077,0,0,1,.94.07.329.329,0,0,1,.283.37s0,0,0,.007l.1.019v-.007a.329.329,0,0,1,.4-.244,7.924,7.924,0,0,1,.9.272.329.329,0,0,1,.2.422l0,.007.095.04,0-.007a.329.329,0,0,1,.44-.152,7.971,7.971,0,0,1,.822.462.329.329,0,0,1,.1.455l0,.006.084.06,0-.006a.329.329,0,0,1,.463-.053,8.082,8.082,0,0,1,.7.628.329.329,0,0,1,0,.466l-.005,0,.069.077.005,0a.329.329,0,0,1,.463.047,8.007,8.007,0,0,1,.552.766.329.329,0,0,1-.1.454l-.006,0,.051.09.006,0a.329.329,0,0,1,.442.146,7.971,7.971,0,0,1,.373.867.329.329,0,0,1-.2.421l-.007,0c.01.033.02.066.03.1l.007,0a.329.329,0,0,1,.4.239,7.974,7.974,0,0,1,.175.927.329.329,0,0,1-.285.368h-.007c0,.034.006.068.008.1h.007a.33.33,0,0,1,.339.32c0,.077,0,.155,0,.231,0,.237-.011.476-.031.711a.329.329,0,0,1-.328.3h-.036c0,.034-.009.068-.014.1h.007a.329.329,0,0,1,.262.385,7.944,7.944,0,0,1-.231.915.329.329,0,0,1-.413.214l-.007,0-.036.1.007,0a.329.329,0,0,1,.172.433,7.941,7.941,0,0,1-.425.842.329.329,0,0,1-.45.119l-.006,0-.056.087.006,0a.329.329,0,0,1,.074.46,8.046,8.046,0,0,1-.6.731.329.329,0,0,1-.465.019l0,0-.074.072.005.005a.329.329,0,0,1-.027.465,8.066,8.066,0,0,1-.74.586.329.329,0,0,1-.458-.081l0-.006-.088.055,0,.006a.329.329,0,0,1-.126.448,7.949,7.949,0,0,1-.85.412.329.329,0,0,1-.43-.179l0-.007-.1.035,0,.007a.329.329,0,0,1-.221.41,7.957,7.957,0,0,1-.919.217.322.322,0,0,1-.057,0,.329.329,0,0,1-.324-.273s0,0,0-.007l-.1.013s0,0,0,.007a.329.329,0,0,1-.3.352c-.194.014-.392.021-.587.021-.118,0-.238,0-.355-.008a.329.329,0,0,1-.315-.343s0,0,0-.007l-.1-.009s0,0,0,.007a.329.329,0,0,1-.325.282.346.346,0,0,1-.047,0,7.951,7.951,0,0,1-.925-.19.329.329,0,0,1-.233-.4l0-.007-.1-.032,0,.007a.329.329,0,0,1-.425.191,7.985,7.985,0,0,1-.861-.387.329.329,0,0,1-.139-.444l0-.006-.089-.052,0,.006a.329.329,0,0,1-.456.094,8.03,8.03,0,0,1-.757-.563.329.329,0,0,1-.04-.464l0-.005-.076-.07,0,.005a.329.329,0,0,1-.466-.006,8.034,8.034,0,0,1-.618-.713.329.329,0,0,1,.061-.462l.006,0-.059-.085-.006,0a.329.329,0,0,1-.453-.106,7.983,7.983,0,0,1-.449-.83.329.329,0,0,1,.159-.438l.007,0-.039-.1-.007,0a.329.329,0,0,1-.419-.2,7.935,7.935,0,0,1-.258-.908.329.329,0,0,1,.251-.392h.007q-.009-.051-.017-.1h-.007l-.039,0a.329.329,0,0,1-.327-.291,8.072,8.072,0,0,1-.055-.941A.329.329,0,0,1,209.108,1595.3Z" transform="translate(-208.085 -1586.645)" fill="#132228"/>
          <circle id="Ellipse_37" data-name="Ellipse 37" cx="6.288" cy="6.288" r="6.288" transform="translate(8.893 17.787) rotate(-135)" fill="#081216"/>
          <g id="Group_284" data-name="Group 284" transform="translate(3.004 5.239)" opacity="0.15">
            <path id="Path_471" data-name="Path 471" d="M310.495,1622.245a.329.329,0,0,0,.291-.175c.065-.123.136-.245.21-.364a.329.329,0,0,0-.559-.349c-.082.131-.16.267-.233.4a.329.329,0,0,0,.291.483Z" transform="translate(-310.166 -1621.203)" fill="#fff"/>
          </g>
          <g id="Group_285" data-name="Group 285" transform="translate(4.564 2.276)" opacity="0.15">
            <path id="Path_472" data-name="Path 472" d="M228.792,1608.994a.329.329,0,0,0,.257-.123,6.618,6.618,0,0,0-9.372-9.247.329.329,0,0,0,.419.508,5.959,5.959,0,0,1,9.75,4.6,5.893,5.893,0,0,1-1.31,3.728.329.329,0,0,0,.257.536Z" transform="translate(-219.557 -1598.112)" fill="#fff"/>
          </g>
          <circle id="Ellipse_38" data-name="Ellipse 38" cx="4.638" cy="4.638" r="4.638" transform="translate(8.893 15.452) rotate(-135)" fill="#bec6cc"/>
          <g id="Group_286" data-name="Group 286" transform="translate(5.399 4.408)">
            <path id="Path_473" data-name="Path 473" d="M242.737,1622.417a.183.183,0,0,0,.132-.055,4.485,4.485,0,1,0-6.649-6.009.185.185,0,1,0,.285.237,4.115,4.115,0,1,1,6.1,5.513.185.185,0,0,0,.132.315Z" transform="translate(-236.177 -1614.731)" fill="#fff"/>
          </g>
          <circle id="Ellipse_39" data-name="Ellipse 39" cx="3.859" cy="3.859" r="3.859" transform="translate(8.893 14.35) rotate(-135)" fill="#909599"/>
          <path id="Path_474" data-name="Path 474" d="M247.552,1623.657a3.858,3.858,0,0,0-6.493-2.819,3.858,3.858,0,1,1,5.454,5.453A3.845,3.845,0,0,0,247.552,1623.657Z" transform="translate(-234.985 -1614.578)" fill="#70777c"/>
          <circle id="Ellipse_40" data-name="Ellipse 40" cx="1.575" cy="1.575" r="1.575" transform="translate(8.893 11.12) rotate(-135)" fill="#bec6cc"/>
          <g id="Group_287" data-name="Group 287" transform="translate(5.959 6.292)">
            <path id="Path_475" data-name="Path 475" d="M252.652,1634.561a.315.315,0,0,0,.117-.43h0a.315.315,0,0,0-.43-.117h0a.315.315,0,0,0-.118.43h0a.316.316,0,0,0,.274.159h0A.316.316,0,0,0,252.652,1634.561Zm-2.5-.126a.315.315,0,0,0-.114-.431h0a.315.315,0,0,0-.431.114h0a.315.315,0,0,0,.114.431h0a.313.313,0,0,0,.158.043h0A.314.314,0,0,0,250.154,1634.435Zm3.978-2.4a.315.315,0,0,0-.312-.317h0a.315.315,0,0,0-.318.312h0a.315.315,0,0,0,.312.318h0A.315.315,0,0,0,254.132,1632.035Zm-5.238-.024h0c0-.006,0-.012,0-.019h0c0-.006,0-.013,0-.019h0a.315.315,0,0,0-.31-.32h0a.315.315,0,0,0-.32.31h0c0,.008,0,.016,0,.024h0c0,.008,0,.016,0,.024h0a.315.315,0,0,0,.315.315h0A.315.315,0,0,0,248.894,1632.011Zm3.91-2.093a.315.315,0,0,0-.11-.432h0a.315.315,0,0,0-.432.11h0a.315.315,0,0,0,.11.432h0a.313.313,0,0,0,.16.044h0A.315.315,0,0,0,252.8,1629.918Zm-2.73.082h0a.315.315,0,0,0,.121-.429h0a.315.315,0,0,0-.429-.121h0a.315.315,0,0,0-.121.429h0a.315.315,0,0,0,.275.161h0A.316.316,0,0,0,250.073,1630Z" transform="translate(-248.264 -1629.409)" fill="#bec6cc"/>
          </g>
          <path id="Path_476" data-name="Path 476" d="M264.674,1644.537l.513-.889-.513-.889h-1.026l-.513.889.513.889Z" transform="translate(-255.267 -1634.755)" fill="#909599"/>
          <path id="Path_477" data-name="Path 477" d="M266.086,1645.374l.314-.544a.183.183,0,0,0,0-.184l-.314-.544a.184.184,0,0,0-.159-.092H265.3a.184.184,0,0,0-.159.092l-.314.544a.183.183,0,0,0,0,.184l.314.544a.184.184,0,0,0,.159.092h.629A.184.184,0,0,0,266.086,1645.374Z" transform="translate(-256.719 -1635.845)" fill="#bec6cc"/>
        </g>
        <path id="Path_478" data-name="Path 478" d="M194.691,1579.036l.121-2.116,1.646-3.827,3.98-2.8,5.433-.535,4,.864,3.385,3.827,1.194,5.271v.521Z" transform="translate(-138.464 -1528.203)" opacity="0.24"/>
        <path id="Path_479" data-name="Path 479" d="M648.513,1582.725l-19.929-.76.288-5.045,1.646-3.827,3.98-2.8,5.433-.535,4,.864,3.385,3.827,1.193,5.271Z" transform="translate(-628.202 -1528.203)"/>
        <g id="Group_293" data-name="Group 293" transform="translate(2.184 43.842)">
          <path id="Path_480" data-name="Path 480" d="M645.7,1595.3a.328.328,0,0,1-.087-.243,8,8,0,0,1,.112-.937.329.329,0,0,1,.382-.266l.007,0,.023-.1-.007,0a.329.329,0,0,1-.226-.407,7.931,7.931,0,0,1,.313-.891.329.329,0,0,1,.431-.176l.006,0,.045-.093-.007,0a.329.329,0,0,1-.132-.446,8.033,8.033,0,0,1,.5-.8.329.329,0,0,1,.459-.079l.006,0,.064-.081-.006,0a.329.329,0,0,1-.033-.464,8.083,8.083,0,0,1,.659-.675.329.329,0,0,1,.465.022l0,.006.08-.066,0-.005a.329.329,0,0,1,.068-.461,8,8,0,0,1,.789-.517.329.329,0,0,1,.45.122l0,.006.092-.047,0-.006a.329.329,0,0,1,.166-.435,7.977,7.977,0,0,1,.883-.334.329.329,0,0,1,.412.217l0,.007.1-.026,0-.007a.329.329,0,0,1,.257-.389,8.046,8.046,0,0,1,.934-.133.329.329,0,0,1,.355.3s0,0,0,.007l.1,0s0,0,0-.007a.33.33,0,0,1,.334-.324,8.08,8.08,0,0,1,.94.07.329.329,0,0,1,.283.37s0,0,0,.007l.1.019v-.007a.329.329,0,0,1,.4-.244,7.923,7.923,0,0,1,.9.272.329.329,0,0,1,.2.422l0,.007.095.04,0-.007a.329.329,0,0,1,.44-.152,7.952,7.952,0,0,1,.822.462.329.329,0,0,1,.1.455l0,.006.084.06,0-.006a.329.329,0,0,1,.463-.053,8.068,8.068,0,0,1,.7.628.329.329,0,0,1,0,.466l-.005,0,.069.077.005,0a.33.33,0,0,1,.463.047,8.006,8.006,0,0,1,.552.766.329.329,0,0,1-.1.454l-.006,0,.051.09.006,0a.329.329,0,0,1,.442.146,7.95,7.95,0,0,1,.373.867.329.329,0,0,1-.2.421l-.007,0,.03.1.007,0a.329.329,0,0,1,.4.239,7.949,7.949,0,0,1,.175.927.329.329,0,0,1-.285.368h-.007c0,.034.006.068.008.1h.007a.33.33,0,0,1,.338.32c0,.077,0,.155,0,.231,0,.237-.01.476-.031.711a.329.329,0,0,1-.328.3h-.037c0,.034-.009.068-.014.1h.007a.329.329,0,0,1,.262.385,7.954,7.954,0,0,1-.231.915.329.329,0,0,1-.413.214l-.007,0-.036.1.007,0a.329.329,0,0,1,.172.433,7.972,7.972,0,0,1-.424.842.329.329,0,0,1-.45.119l-.006,0-.056.087.006,0a.329.329,0,0,1,.074.46,8.038,8.038,0,0,1-.6.731.329.329,0,0,1-.465.019l-.005,0-.074.072.005.005a.329.329,0,0,1-.027.465,8.079,8.079,0,0,1-.74.586.329.329,0,0,1-.458-.081l0-.006-.087.055,0,.006a.329.329,0,0,1-.126.448,7.952,7.952,0,0,1-.85.412.329.329,0,0,1-.43-.179l0-.007-.1.035,0,.007a.329.329,0,0,1-.221.41,7.96,7.96,0,0,1-.919.217.32.32,0,0,1-.057,0,.329.329,0,0,1-.324-.273v-.007l-.1.013s0,0,0,.007a.329.329,0,0,1-.3.352c-.194.014-.392.021-.587.021-.118,0-.238,0-.356-.008a.329.329,0,0,1-.315-.343v-.007l-.1-.009s0,0,0,.007a.329.329,0,0,1-.325.282.348.348,0,0,1-.047,0,7.948,7.948,0,0,1-.924-.19.329.329,0,0,1-.233-.4l0-.007-.1-.032,0,.007a.329.329,0,0,1-.424.191,7.991,7.991,0,0,1-.861-.387.329.329,0,0,1-.139-.444l0-.006-.089-.052,0,.006a.33.33,0,0,1-.456.094,8.024,8.024,0,0,1-.756-.563.329.329,0,0,1-.04-.464l0-.005-.076-.07,0,.005a.329.329,0,0,1-.466-.006,8.056,8.056,0,0,1-.618-.713.329.329,0,0,1,.061-.462l.006,0-.059-.085-.006,0a.329.329,0,0,1-.453-.106,7.95,7.95,0,0,1-.449-.83.329.329,0,0,1,.159-.438l.007,0-.039-.1-.007,0a.329.329,0,0,1-.419-.2,7.935,7.935,0,0,1-.258-.908.329.329,0,0,1,.251-.392h.007c-.006-.034-.012-.068-.017-.1h-.007l-.039,0a.329.329,0,0,1-.327-.291,8.088,8.088,0,0,1-.055-.941A.329.329,0,0,1,645.7,1595.3Z" transform="translate(-645.602 -1587.568)" fill="#132228"/>
          <ellipse id="Ellipse_41" data-name="Ellipse 41" cx="6.288" cy="6.288" rx="6.288" ry="6.288" transform="translate(3.296 15.536) rotate(-103.283)" fill="#081216"/>
          <g id="Group_289" data-name="Group 289" transform="translate(2.083 4.316)" opacity="0.15">
            <path id="Path_481" data-name="Path 481" d="M747.09,1622.245a.329.329,0,0,0,.291-.175c.065-.123.136-.245.21-.364a.329.329,0,1,0-.559-.349c-.082.131-.16.267-.233.4a.329.329,0,0,0,.291.483Z" transform="translate(-746.761 -1621.203)" fill="#fff"/>
          </g>
          <g id="Group_290" data-name="Group 290" transform="translate(3.642 1.353)" opacity="0.15">
            <path id="Path_482" data-name="Path 482" d="M665.388,1608.994a.329.329,0,0,0,.257-.123,6.618,6.618,0,0,0-9.372-9.247.329.329,0,0,0,.419.508,5.959,5.959,0,0,1,9.75,4.6,5.893,5.893,0,0,1-1.31,3.728.329.329,0,0,0,.257.536Z" transform="translate(-656.153 -1598.112)" fill="#fff"/>
          </g>
          <ellipse id="Ellipse_42" data-name="Ellipse 42" cx="4.638" cy="4.638" rx="4.638" ry="4.638" transform="translate(4.523 13.55) rotate(-103.283)" fill="#bec6cc"/>
          <g id="Group_291" data-name="Group 291" transform="translate(4.477 3.486)">
            <path id="Path_483" data-name="Path 483" d="M679.333,1622.417a.184.184,0,0,0,.132-.055,4.485,4.485,0,1,0-6.649-6.009.185.185,0,1,0,.285.237,4.115,4.115,0,1,1,6.1,5.513.185.185,0,0,0,.132.315Z" transform="translate(-672.773 -1614.731)" fill="#fff"/>
          </g>
          <ellipse id="Ellipse_43" data-name="Ellipse 43" cx="3.859" cy="3.859" rx="3.859" ry="3.859" transform="translate(5.103 12.613) rotate(-103.283)" fill="#909599"/>
          <path id="Path_484" data-name="Path 484" d="M684.147,1623.657a3.858,3.858,0,0,0-6.493-2.819,3.858,3.858,0,1,1,5.454,5.453A3.845,3.845,0,0,0,684.147,1623.657Z" transform="translate(-672.502 -1615.501)" fill="#70777c"/>
          <ellipse id="Ellipse_44" data-name="Ellipse 44" cx="1.575" cy="1.575" rx="1.575" ry="1.575" transform="translate(6.801 9.865) rotate(-103.283)" fill="#bec6cc"/>
          <g id="Group_292" data-name="Group 292" transform="translate(5.038 5.369)">
            <path id="Path_485" data-name="Path 485" d="M689.247,1634.561a.315.315,0,0,0,.117-.43h0a.315.315,0,0,0-.43-.117h0a.315.315,0,0,0-.117.43h0a.315.315,0,0,0,.274.159h0A.315.315,0,0,0,689.247,1634.561Zm-2.5-.126a.315.315,0,0,0-.114-.431h0a.315.315,0,0,0-.431.114h0a.315.315,0,0,0,.114.431h0a.314.314,0,0,0,.158.043h0A.314.314,0,0,0,686.749,1634.435Zm3.978-2.4a.315.315,0,0,0-.312-.317h0a.315.315,0,0,0-.317.312h0a.315.315,0,0,0,.312.318h0A.315.315,0,0,0,690.727,1632.035Zm-5.238-.024h0c0-.006,0-.012,0-.019h0c0-.006,0-.013,0-.019h0a.315.315,0,0,0-.31-.32h0a.315.315,0,0,0-.32.31h0c0,.008,0,.016,0,.024h0c0,.008,0,.016,0,.024h0a.315.315,0,0,0,.315.315h0A.315.315,0,0,0,685.489,1632.011Zm3.91-2.093a.315.315,0,0,0-.11-.432h0a.315.315,0,0,0-.432.11h0a.315.315,0,0,0,.11.432h0a.313.313,0,0,0,.16.044h0A.315.315,0,0,0,689.4,1629.918Zm-2.73.082h0a.315.315,0,0,0,.121-.429h0a.315.315,0,0,0-.429-.121h0a.315.315,0,0,0-.121.429h0a.315.315,0,0,0,.275.161h0A.316.316,0,0,0,686.669,1630Z" transform="translate(-684.859 -1629.409)" fill="#bec6cc"/>
          </g>
          <path id="Path_486" data-name="Path 486" d="M701.269,1644.537l.513-.889-.513-.889h-1.026l-.513.889.513.889Z" transform="translate(-692.785 -1635.677)" fill="#909599"/>
          <path id="Path_487" data-name="Path 487" d="M702.682,1645.374l.314-.544a.183.183,0,0,0,0-.184l-.314-.544a.184.184,0,0,0-.159-.092h-.629a.184.184,0,0,0-.159.092l-.314.544a.183.183,0,0,0,0,.184l.314.544a.184.184,0,0,0,.159.092h.629A.184.184,0,0,0,702.682,1645.374Z" transform="translate(-694.237 -1636.767)" fill="#bec6cc"/>
        </g>
        <path id="Path_488" data-name="Path 488" d="M628.584,1579.036l.121-2.116,1.646-3.827,3.98-2.8,5.434-.535,4,.864,3.385,3.827,1.194,5.271v.521Z" transform="translate(-628.034 -1528.203)" opacity="0.24"/>
        <path id="Path_489" data-name="Path 489" d="M167.087,1374.144l-2.694-13.818-12.8.947,1.934,12.7Z" transform="translate(-85.569 -1345.644)" fill="#47cfe2"/>
        <path id="Path_490" data-name="Path 490" d="M246.591,1424.054l-.569-3.117a.582.582,0,0,0-.511-.474l-.586-.062a.582.582,0,0,0-.642.618l.208,3.117a.582.582,0,0,0,.543.542l.948.062A.582.582,0,0,0,246.591,1424.054Z" transform="translate(-176.977 -1398.007)" fill="#1b4649"/>
        <path id="Path_491" data-name="Path 491" d="M252.569,1396.777l-.28-1.773a.548.548,0,0,0-.5-.461l-.309-.022a.548.548,0,0,0-.585.589l.139,1.774a.548.548,0,0,0,.521.5l.451.021A.548.548,0,0,0,252.569,1396.777Z" transform="translate(-183.8 -1375.451)" fill="#1b4649"/>
        <path id="Path_492" data-name="Path 492" d="M176.381,1386.789h0a.178.178,0,0,0,.16-.2l-.136-1.365a.178.178,0,0,0-.2-.16h0a.178.178,0,0,0-.16.2l.136,1.365A.178.178,0,0,0,176.381,1386.789Z" transform="translate(-98.162 -1367.211)" fill="#1b4649"/>
        <path id="Path_493" data-name="Path 493" d="M175.946,1372.439h0a.151.151,0,0,0,.135-.165l-.252-2.525a.151.151,0,0,0-.165-.135h0a.151.151,0,0,0-.135.165l.252,2.525A.151.151,0,0,0,175.946,1372.439Z" transform="translate(-97.635 -1353.739)" fill="#1b4649"/>
        <path id="Path_494" data-name="Path 494" d="M154.918,1445.841l-4.427-.673a.853.853,0,0,0-.979.905l.2,2.761,4.938.4Z" transform="translate(-73.133 -1419.591)" fill="#1b4649"/>
        <path id="Path_495" data-name="Path 495" d="M166.926,1371.7l-.587-.008-11.026-10.668,9.4-.695Z" transform="translate(-85.885 -1345.644)" fill="#fff" opacity="0.2"/>
        <g id="Group_294" data-name="Group 294" transform="translate(66.902 15.547)">
          <path id="Path_496" data-name="Path 496" d="M159.273,1367.065l0,.025,12.891,12.536-1.79-.023-11.82-11.437-.129-.847Z" transform="translate(-158.428 -1367.065)" fill="#fff" opacity="0.2"/>
        </g>
        <path id="Path_497" data-name="Path 497" d="M370.475,1607.034v-4.167l.494-3.182,1.3-2.04-2.037.389H332.47l.843,2.43.488,6.291Z" transform="translate(-313.957 -1552.511)" fill="#3174c4"/>
        <g id="Group_297" data-name="Group 297" transform="translate(31.437 45.888)">
          <g id="Group_295" data-name="Group 295" transform="translate(13.66)">
            <path id="Path_498" data-name="Path 498" d="M433.324,1611.746a.144.144,0,0,0,.144-.144v-7.941a.144.144,0,1,0-.288,0v7.941A.144.144,0,0,0,433.324,1611.746Z" transform="translate(-433.18 -1603.517)" fill="#133556"/>
          </g>
          <g id="Group_296" data-name="Group 296">
            <path id="Path_499" data-name="Path 499" d="M539.78,1611.746a.144.144,0,0,0,.144-.144v-7.941a.144.144,0,1,0-.288,0v7.941A.144.144,0,0,0,539.78,1611.746Z" transform="translate(-539.636 -1603.517)" fill="#133556"/>
          </g>
        </g>
        <rect id="Rectangle_203" data-name="Rectangle 203" width="39.239" height="1.142" transform="translate(18.534 44.89)" fill="#bec6cc"/>
        <rect id="Rectangle_204" data-name="Rectangle 204" width="41.112" height="1.142" transform="translate(17.597 43.748)" fill="#2b2e30"/>
        <rect id="Rectangle_205" data-name="Rectangle 205" width="41.112" height="0.429" transform="translate(17.597 44.461)" fill="#191c1e"/>
        <g id="Group_298" data-name="Group 298" transform="translate(21.74 52.771)">
          <rect id="Rectangle_206" data-name="Rectangle 206" width="1.42" height="0.803" rx="0.401" transform="translate(31.921)" fill="#ffa143"/>
          <rect id="Rectangle_207" data-name="Rectangle 207" width="1.42" height="0.803" rx="0.401" transform="translate(23.941)" fill="#ffa143"/>
          <rect id="Rectangle_208" data-name="Rectangle 208" width="1.42" height="0.803" rx="0.401" transform="translate(15.96)" fill="#ffa143"/>
          <rect id="Rectangle_209" data-name="Rectangle 209" width="1.42" height="0.803" rx="0.401" transform="translate(7.98)" fill="#ffa143"/>
          <rect id="Rectangle_210" data-name="Rectangle 210" width="1.42" height="0.803" rx="0.401" transform="translate(0)" fill="#ffa143"/>
        </g>
        <path id="Path_500" data-name="Path 500" d="M125.106,1529.83l15.167-1.976,14.136,5.557v.688l.471.592a2.576,2.576,0,0,1,.56,1.6v7.812a1.659,1.659,0,0,1-1.659,1.659h-7.664V1543.2a9.415,9.415,0,0,0-9.415-9.415h0a9.415,9.415,0,0,0-9.415,9.415v2.569h-.74v-2.938a13.755,13.755,0,0,1,1.194-5.6h0l-2.634-2.058Z" transform="translate(-70.523 -1491.675)" fill="#3174c4"/>
        <g id="Group_299" data-name="Group 299" transform="translate(72.876 43.257)">
          <path id="Path_501" data-name="Path 501" d="M149.781,1631.118v4.661h-7.1v-2.569a9.451,9.451,0,0,0-.233-2.091Z" transform="translate(-139.966 -1624.945)" fill="#245f9b"/>
          <path id="Path_502" data-name="Path 502" d="M150.183,1583.012a2.083,2.083,0,0,1,2.083,2.083v2.349h-7.909a9.437,9.437,0,0,0-1.906-2.786v-1.647Z" transform="translate(-142.451 -1583.012)" fill="#245f9b"/>
        </g>
        <g id="Group_300" data-name="Group 300" transform="translate(72.876 43.257)">
          <path id="Path_503" data-name="Path 503" d="M149.781,1631.118v4.661h-7.1v-2.569a9.451,9.451,0,0,0-.233-2.091Z" transform="translate(-139.966 -1624.945)" fill="#245f9b"/>
          <path id="Path_504" data-name="Path 504" d="M150.183,1583.012a2.083,2.083,0,0,1,2.083,2.083v2.349h-7.909a9.437,9.437,0,0,0-1.906-2.786v-1.647Z" transform="translate(-142.451 -1583.012)" fill="#245f9b"/>
        </g>
        <path id="Path_505" data-name="Path 505" d="M146.294,1662.146h-6.337v.679h6.337a.339.339,0,0,0,.34-.34h0A.34.34,0,0,0,146.294,1662.146Z" transform="translate(-63.622 -1608.735)" fill="#bec6cc"/>
        <path id="Path_506" data-name="Path 506" d="M147.191,1612.265h-7.234v.679h7.234a.339.339,0,0,0,.34-.339h0A.339.339,0,0,0,147.191,1612.265Z" transform="translate(-64.519 -1565.254)" fill="#bec6cc"/>
        <rect id="Rectangle_211" data-name="Rectangle 211" width="1.914" height="2.801" rx="0.957" transform="translate(83.454 44.62)" fill="#ffa143"/>
        <path id="Path_507" data-name="Path 507" d="M139.182,1249.8l14.728,2.256a6.7,6.7,0,0,1,5.487,5l1.351,5.425h-2.391l1.705,11.616a3.25,3.25,0,0,1,1.964,2.985v9.769a.79.79,0,0,1-.79.791h-6.747a6.323,6.323,0,0,1-4.034-1.454l-.812-.673a6.322,6.322,0,0,0-4.034-1.454h-20.5v-38.155Zm6.428,22.239,11.849,1.691L156,1263.61a1.314,1.314,0,0,0-1.3-1.126h-8.6a1.314,1.314,0,0,0-1.307,1.446Z" transform="translate(-77.109 -1245.909)" fill="#3174c4"/>
        <g id="Group_301" data-name="Group 301" transform="translate(47.997)">
          <path id="Path_508" data-name="Path 508" d="M149.142,1249.8l14.728,2.256a6.7,6.7,0,0,1,5.487,5l1.351,5.425H168.62l-1.35-5.425a6.691,6.691,0,0,0-1.563-2.91,6.682,6.682,0,0,0-1.836-.559l-14.728-2.256-3.886-1.074a5.5,5.5,0,0,0-6.978,5.206c0,.035,0,.07,0,.1v28.365l-3.212.127v-38.155Z" transform="translate(-135.066 -1245.909)" fill="#478cd1"/>
          <path id="Path_509" data-name="Path 509" d="M129.158,1468.586v9.769a.79.79,0,0,1-.79.791H126.28a.79.79,0,0,0,.79-.791v-9.769a3.251,3.251,0,0,0-1.964-2.985h2.088A3.251,3.251,0,0,1,129.158,1468.586Z" transform="translate(-92.238 -1437.41)" fill="#478cd1"/>
        </g>
        <g id="Group_302" data-name="Group 302" transform="translate(55.992 2.407)" opacity="0.5">
          <path id="Path_510" data-name="Path 510" d="M171.085,1275.019a.231.231,0,0,0,.057-.007.237.237,0,0,0,.172-.287l-.279-1.122a6.92,6.92,0,0,0-5.681-5.181l-5.445-.834a.237.237,0,0,0-.072.468l5.445.834a6.448,6.448,0,0,1,5.293,4.828l.279,1.122A.237.237,0,0,0,171.085,1275.019ZM156.91,1267.6a.237.237,0,0,0,.036-.471l-.812-.124a.237.237,0,0,0-.072.468l.812.124ZM150,1266.473a.237.237,0,0,0,.063-.465l-2.632-.727a.237.237,0,0,0-.126.456l2.632.727A.241.241,0,0,0,150,1266.473Zm-4.065-1.123a.237.237,0,0,0,.063-.465l-.753-.208a.237.237,0,0,0-.126.456l.753.208A.241.241,0,0,0,145.931,1265.349Z" transform="translate(-144.942 -1264.668)" fill="#fff"/>
        </g>
        <path id="Path_511" data-name="Path 511" d="M151.092,1544.7l.812.673a6.323,6.323,0,0,0,4.034,1.454h6.506v.657h-6.506a6.322,6.322,0,0,1-4.034-1.454l-.812-.673a6.321,6.321,0,0,0-4.034-1.454H133.142v-.657h13.917A6.322,6.322,0,0,1,151.092,1544.7Z" transform="translate(-78.559 -1505.095)" fill="#245f9b"/>
        <path id="Path_512" data-name="Path 512" d="M226.12,1496.794h3.119a1.205,1.205,0,0,1,1.021.565l1.041,1.66a.455.455,0,0,1-.385.7h-4.8Z" transform="translate(-159.416 -1464.6)" fill="#245f9b"/>
        <path id="Path_513" data-name="Path 513" d="M178.618,1470.553h0l-27.025-1.462v-1.93l24.144,1.465A3.434,3.434,0,0,1,178.618,1470.553Z" transform="translate(-97.1 -1438.77)" fill="#245f9b"/>
        <path id="Path_514" data-name="Path 514" d="M276.337,1383.882l1.878.275a.8.8,0,0,0,.91-.84l-.485-7.491a.8.8,0,0,0-.8-.745h-4.712a.8.8,0,0,0-.8.8v3.393A4.659,4.659,0,0,0,276.337,1383.882Z" transform="translate(-213.103 -1358.505)" fill="#245f9b"/>
        <path id="Path_515" data-name="Path 515" d="M131.7,1365.759h-3.173a.682.682,0,0,1-.682-.682v-1.229a.682.682,0,0,1,.682-.682h2.815a.581.581,0,0,1,.564.44l.358,1.431A.581.581,0,0,1,131.7,1365.759Z" transform="translate(-47.715 -1348.12)" fill="#478cd1"/>
        <path id="Path_516" data-name="Path 516" d="M132.274,1379.1a.581.581,0,0,1-.58.548h-3.173a.682.682,0,0,1-.669-.548Z" transform="translate(-47.709 -1362.005)" fill="#245f9b"/>
        <path id="Path_517" data-name="Path 517" d="M145.3,1371.739h.095a.984.984,0,0,1,.984.984v.508h-1.4v-1.17A.323.323,0,0,1,145.3,1371.739Z" transform="translate(-64.017 -1355.593)" fill="#245f9b"/>
        <path id="Rectangle_212" data-name="Rectangle 212" d="M0,0H0A2.716,2.716,0,0,1,2.716,2.716V3.807A2.716,2.716,0,0,1,0,6.523H0a0,0,0,0,1,0,0V0A0,0,0,0,1,0,0Z" transform="translate(82.691 34.766)" fill="#5aa1db"/>
        <path id="Path_518" data-name="Path 518" d="M134.914,1516.842a.977.977,0,0,1,.967.977v4.568a.977.977,0,0,1-.967.977Z" transform="translate(-52.223 -1482.076)" fill="#103e5b"/>
        <path id="Path_519" data-name="Path 519" d="M193.181,1571.933h0l.81-1.2a6.964,6.964,0,0,1,5.768-3.062h4.768a6.964,6.964,0,0,1,5.768,3.062l.81,1.2h0a13.755,13.755,0,0,1,1.193,5.6v2.938h-.74v-2.569a9.415,9.415,0,0,0-9.415-9.415h0a9.415,9.415,0,0,0-9.415,9.415v2.569h-.74v-2.938A13.755,13.755,0,0,1,193.181,1571.933Z" transform="translate(-135.964 -1526.385)" fill="#478cd1"/>
        <g id="Group_303" data-name="Group 303" transform="translate(47.997 3.854)">
          <path id="Path_520" data-name="Path 520" d="M302.085,1287h6.477l.935-4.557a3.083,3.083,0,0,1,3.021-2.464h2.309l1.206-4.038.129.036.134.021-1.24,4.154a.134.134,0,0,1-.128.1h-2.409a2.826,2.826,0,0,0-2.758,2.25l-.954,4.65v23.095h-.268v-22.974h-6.452Z" transform="translate(-302.085 -1275.943)" fill="#133556"/>
          <path id="Path_521" data-name="Path 521" d="M150.308,1385.366v-21.737a1.507,1.507,0,0,1,1.5-1.505H162.1a1.5,1.5,0,0,1,1.488,1.277l1.828,11.954a.133.133,0,0,1,0,.02v13.572h-.268v-13.562l-1.827-11.944a1.23,1.23,0,0,0-1.223-1.05H151.813a1.239,1.239,0,0,0-1.237,1.237v21.737Z" transform="translate(-131.735 -1351.065)" fill="#133556"/>
        </g>
        <rect id="Rectangle_213" data-name="Rectangle 213" width="5.316" height="4.321" rx="2.161" transform="translate(47.007 47.69)" fill="#245f9b"/>
        <path id="Path_522" data-name="Path 522" d="M377.6,1631.987h5.165a.309.309,0,0,1,.309.309h0a.309.309,0,0,1-.309.309H377.6a.309.309,0,0,1-.309-.309h0A.309.309,0,0,1,377.6,1631.987Z" transform="translate(-330.516 -1582.446)" fill="#478cd1"/>
        <path id="Path_523" data-name="Path 523" d="M629.777,1571.933h0l.81-1.2a6.964,6.964,0,0,1,5.768-3.062h4.768a6.964,6.964,0,0,1,5.768,3.062l.81,1.2h0a13.755,13.755,0,0,1,1.194,5.6v2.938h-.74v-2.569a9.415,9.415,0,0,0-9.415-9.415h0a9.415,9.415,0,0,0-9.415,9.415v2.569h-.74v-2.938A13.755,13.755,0,0,1,629.777,1571.933Z" transform="translate(-628.584 -1526.385)" fill="#478cd1"/>
        <path id="Path_524" data-name="Path 524" d="M373.092,1543.392c-.011-.047-.02-.094-.028-.142H374.6a1.5,1.5,0,1,0,.673,0H376.8q-.011.072-.028.142a5.661,5.661,0,0,0,.052,1.322,1.9,1.9,0,0,0,0,.881,2.282,2.282,0,0,1-3.734-2.2Zm.427-.065c-.008.022-.015.043-.022.065s.014.043.022.065c.02-.022.04-.044.06-.065Q373.548,1543.36,373.519,1543.327Zm0,.881c-.008.021-.015.043-.022.065s.014.044.022.065q.029-.033.06-.065Q373.548,1544.242,373.519,1544.208Zm.362-.565a1.508,1.508,0,0,0-.163.189,1.527,1.527,0,0,0,.163.189.23.23,0,1,0,0-.379Zm.339.63a1.5,1.5,0,1,0,.713-.18A1.493,1.493,0,0,0,374.22,1544.273Zm1.766-.63a.23.23,0,1,0,0,.379,1.516,1.516,0,0,0,.163-.189A1.5,1.5,0,0,0,375.985,1543.643Zm0,.881a1.889,1.889,0,0,1-2.1,0,1.536,1.536,0,0,0-.163.189,1.5,1.5,0,0,0,2.431,0A1.525,1.525,0,0,0,375.985,1544.524Zm.362-1.2-.061.065c.021.021.041.043.061.065.008-.021.015-.043.022-.065S376.355,1543.349,376.347,1543.327Zm0,.881q-.029.033-.061.065.031.032.061.065c.008-.021.015-.043.022-.065S376.355,1544.23,376.347,1544.208Zm0,.881a1.89,1.89,0,0,1-2.829,0c-.008.021-.015.043-.022.065a1.5,1.5,0,0,0,2.872,0C376.362,1545.133,376.355,1545.111,376.347,1545.09Zm-1.414,2.008a1.5,1.5,0,0,0,1.47-1.191,1.89,1.89,0,0,1-2.939,0A1.5,1.5,0,0,0,374.933,1547.1Z" transform="translate(-323.724 -1505.095)" fill="#0c212b"/>
        <g id="Group_304" data-name="Group 304" transform="translate(80.13 24.786)">
          <path id="Path_525" data-name="Path 525" d="M145.829,1442.673a.565.565,0,0,0,.09-.007l1.1-.18a.552.552,0,0,0,.462-.544v-2.322a.552.552,0,0,0-1.1,0v1.853l-.633.1a.552.552,0,0,0,.089,1.1Z" transform="translate(-145.278 -1439.068)" fill="#081216"/>
        </g>
        <g id="Group_308" data-name="Group 308" transform="translate(18.819 53.486)">
          <path id="Path_526" data-name="Path 526" d="M563.34,1673.417l3.784-.487-3.784-.729Z" transform="translate(-557.26 -1670.985)" fill="#a7afb5"/>
          <path id="Path_527" data-name="Path 527" d="M341.521,1667.981h36.56a.728.728,0,0,0,.728-.728h0a.728.728,0,0,0-.728-.729h-36.56a.728.728,0,0,0-.729.729h0A.728.728,0,0,0,341.521,1667.981Z" transform="translate(-340.389 -1666.036)" fill="#bec6cc"/>
          <rect id="Rectangle_214" data-name="Rectangle 214" width="4.863" height="2.429" transform="translate(1.216)" fill="#a7afb5"/>
          <path id="Path_528" data-name="Path 528" d="M379.6,1675.5a.727.727,0,0,1-.592.3h-36.56a.727.727,0,0,1-.592-.3Z" transform="translate(-341.314 -1673.864)" fill="#a7afb5"/>
          <circle id="Ellipse_45" data-name="Ellipse 45" cx="1.216" cy="1.216" r="1.216" transform="translate(0 0)" fill="#d7dee2"/>
          <circle id="Ellipse_46" data-name="Ellipse 46" cx="1.216" cy="1.216" r="1.216" transform="translate(2.432 0)" fill="#d7dee2"/>
          <g id="Group_305" data-name="Group 305" transform="translate(2.77 0.058)">
            <path id="Path_529" data-name="Path 529" d="M604.223,1665.307a.122.122,0,0,0,.071-.022,1.158,1.158,0,1,0-1.5-1.745.124.124,0,1,0,.181.17.9.9,0,0,1,.663-.287.91.91,0,0,1,.519,1.658.124.124,0,0,0,.071.226Z" transform="translate(-602.756 -1663.175)" fill="#fff"/>
          </g>
          <path id="Path_530" data-name="Path 530" d="M605.28,1666.534a.834.834,0,1,0,.834-.834A.834.834,0,0,0,605.28,1666.534Z" transform="translate(-602.467 -1665.318)" fill="#2b2e30"/>
          <g id="Group_306" data-name="Group 306" transform="translate(0.338 0.058)">
            <path id="Path_531" data-name="Path 531" d="M623.173,1665.307a.122.122,0,0,0,.071-.022,1.158,1.158,0,1,0-1.5-1.745.124.124,0,1,0,.181.17.9.9,0,0,1,.663-.287.91.91,0,0,1,.518,1.658.124.124,0,0,0,.071.226Z" transform="translate(-621.706 -1663.175)" fill="#fff"/>
          </g>
          <path id="Path_532" data-name="Path 532" d="M624.23,1666.534a.834.834,0,1,0,.834-.834A.834.834,0,0,0,624.23,1666.534Z" transform="translate(-623.848 -1665.318)" fill="#2b2e30"/>
          <path id="Path_533" data-name="Path 533" d="M563.34,1662.725l3.784.487-3.784.728Z" transform="translate(-557.26 -1662.725)" fill="#bec6cc"/>
          <circle id="Ellipse_47" data-name="Ellipse 47" cx="1.216" cy="1.216" r="1.216" transform="translate(4.863 0)" fill="#d7dee2"/>
          <g id="Group_307" data-name="Group 307" transform="translate(5.202 0.058)">
            <path id="Path_534" data-name="Path 534" d="M585.272,1665.307a.123.123,0,0,0,.071-.022,1.158,1.158,0,1,0-1.5-1.745.124.124,0,1,0,.181.17.9.9,0,0,1,.663-.287.91.91,0,0,1,.518,1.658.124.124,0,0,0,.071.226Z" transform="translate(-583.805 -1663.175)" fill="#fff"/>
          </g>
          <circle id="Ellipse_48" data-name="Ellipse 48" cx="0.834" cy="0.834" r="0.834" transform="translate(5.245 0.382)" fill="#2b2e30"/>
        </g>
        <rect id="Rectangle_215" data-name="Rectangle 215" width="0.967" height="2.922" transform="translate(67.537 32.194)" fill="#1b5687"/>
        <path id="Path_535" data-name="Path 535" d="M245.481,1496.035v2.344a.443.443,0,0,0,.443.443h.55a.443.443,0,0,0,.432-.541l-.528-2.344a.443.443,0,0,0-.432-.346h-.022A.443.443,0,0,0,245.481,1496.035Z" transform="translate(-177.447 -1463.553)" fill="#78c5ff"/>
        <rect id="Rectangle_216" data-name="Rectangle 216" width="0.453" height="2.675" transform="translate(81.785 21.665)" fill="#081216"/>
        <path id="Path_536" data-name="Path 536" d="M365.762,1596.47h21.59a.286.286,0,0,1,.286.286h0a.286.286,0,0,1-.286.286h-21.59a.286.286,0,0,1-.286-.286h0A.286.286,0,0,1,365.762,1596.47Z" transform="translate(-333.564 -1551.486)" fill="#e7edf2"/>
        <path id="Path_537" data-name="Path 537" d="M365.762,1667.566h21.59a.286.286,0,0,1,.286.286h0a.286.286,0,0,1-.286.286h-21.59a.286.286,0,0,1-.286-.286h0A.286.286,0,0,1,365.762,1667.566Z" transform="translate(-333.564 -1613.459)" fill="#fff"/>
        <path id="Path_538" data-name="Path 538" d="M376.957,1543.7c0,.064,0,.127-.01.189h-.831a1.507,1.507,0,0,0,.163-.189,1.527,1.527,0,0,0-.163-.189.23.23,0,1,0,0,.379h-2.1a.23.23,0,1,0,0-.379,1.513,1.513,0,0,0-.163.189,1.494,1.494,0,0,0,.163.189h-.831a1.889,1.889,0,0,1,.042-.63q-.017-.07-.028-.142h1.533a1.5,1.5,0,1,0,.673,0h1.533c-.008.048-.017.1-.028.142A1.9,1.9,0,0,1,376.957,1543.7Zm-3.307-.506c-.008.021-.015.043-.022.065s.014.043.022.065c.02-.022.04-.044.06-.065C373.689,1543.239,373.669,1543.218,373.65,1543.2Zm2.829,0c-.02.022-.04.044-.06.065.021.021.041.043.06.065.008-.021.015-.043.022-.065S376.486,1543.217,376.478,1543.2Z" transform="translate(-323.872 -1504.98)" fill="#061419"/>
        <g id="Group_309" data-name="Group 309" transform="translate(67.481 16.38)">
          <path id="Path_539" data-name="Path 539" d="M172.037,1385.191a.2.2,0,0,0,.193-.223l-1.463-10.118a1.517,1.517,0,0,0-1.494-1.294h-8.6a1.509,1.509,0,0,0-1.5,1.661l.819,8.107a.2.2,0,0,0,.167.174l11.849,1.691Zm-2.763-11.245a1.125,1.125,0,0,1,1.107.959l1.425,9.86-11.439-1.632-.8-7.955a1.119,1.119,0,0,1,1.113-1.231Z" transform="translate(-159.167 -1373.556)" fill="#081216"/>
        </g>
        <path id="Path_540" data-name="Path 540" d="M147.475,1460.5v.123a.552.552,0,0,1-.462.545l-1.1.18a.579.579,0,0,1-.09.007.552.552,0,0,1-.544-.463c0-.015,0-.03-.005-.045Z" transform="translate(-65.146 -1432.962)" fill="#030607"/>
        <path id="Rectangle_217" data-name="Rectangle 217" d="M.544,0h0A1.659,1.659,0,0,1,2.2,1.659V1.91A1.659,1.659,0,0,1,.544,3.569h0A.544.544,0,0,1,0,3.025V.544A.544.544,0,0,1,.544,0Z" transform="translate(80.91 23.263)" fill="#081216"/>
        <path id="Path_541" data-name="Path 541" d="M145.254,1430.473v-2.982a.294.294,0,0,1,.294-.293h.233a.9.9,0,0,1,.9.9v1.779a.9.9,0,0,1-.9.9h-.233A.294.294,0,0,1,145.254,1430.473Z" transform="translate(-64.344 -1403.934)" fill="#162c33"/>
        <path id="Path_542" data-name="Path 542" d="M143.308,1378.638h0a.916.916,0,0,0,.916-.916v-4.935a.916.916,0,0,0-.916-.916h0a.3.3,0,0,0-.3.3v6.166A.3.3,0,0,0,143.308,1378.638Z" transform="translate(-61.604 -1355.708)" fill="#081216"/>
        <path id="Path_543" data-name="Path 543" d="M148.068,1373.307v4.935a.916.916,0,0,1-.549.839.3.3,0,0,1-.1-.224v-6.166a.3.3,0,0,1,.1-.224A.916.916,0,0,1,148.068,1373.307Z" transform="translate(-66.014 -1356.228)" fill="#162c33"/>
        <g id="Group_310" data-name="Group 310" transform="translate(80.641 15.462)">
          <path id="Path_544" data-name="Path 544" d="M154.9,1376.829a.226.226,0,1,0,.226-.226A.226.226,0,0,0,154.9,1376.829Z" transform="translate(-154.9 -1375.295)" fill="#081216"/>
          <circle id="Ellipse_49" data-name="Ellipse 49" cx="0.226" cy="0.226" r="0.226" transform="translate(0)" fill="#081216"/>
        </g>
        <path id="Path_545" data-name="Path 545" d="M140.3,1358.268l-2.267-.721.18.721Z" transform="translate(-57.041 -1343.222)" fill="#245f9b"/>
        <g id="Group_311" data-name="Group 311" transform="translate(83.059 28.636)" opacity="0.5">
          <path id="Path_546" data-name="Path 546" d="M128.148,1474.78a.237.237,0,0,0,.237-.237v-.659a.237.237,0,0,0-.473,0v.659A.237.237,0,0,0,128.148,1474.78Zm0-2.449a.237.237,0,0,0,.237-.237v-.284a3.478,3.478,0,0,0-1.261-2.684.237.237,0,0,0-.3.364,3.005,3.005,0,0,1,1.09,2.32v.284A.237.237,0,0,0,128.148,1472.331Z" transform="translate(-126.736 -1469.072)" fill="#fff"/>
        </g>
      </g>
      <g id="Group_328" data-name="Group 328" transform="translate(22.641 48.915)">
        <g id="Group_317" data-name="Group 317" transform="translate(41.179 2.307)">
          <path id="Path_547" data-name="Path 547" d="M1314.838,1595.3a.328.328,0,0,1-.087-.243,8.014,8.014,0,0,1,.111-.937.329.329,0,0,1,.382-.266l.007,0q.011-.05.023-.1l-.007,0a.329.329,0,0,1-.226-.407,7.956,7.956,0,0,1,.313-.891.329.329,0,0,1,.431-.176l.007,0,.045-.093-.006,0a.329.329,0,0,1-.132-.446,8,8,0,0,1,.5-.8.329.329,0,0,1,.459-.079l.006,0,.064-.081-.006,0a.329.329,0,0,1-.033-.464,8.035,8.035,0,0,1,.659-.675.329.329,0,0,1,.465.022l0,.006.08-.066,0-.005a.329.329,0,0,1,.068-.461,8.025,8.025,0,0,1,.79-.517.329.329,0,0,1,.449.122l0,.006.092-.047,0-.006a.329.329,0,0,1,.166-.435,7.971,7.971,0,0,1,.883-.334.329.329,0,0,1,.412.217l0,.007.1-.026,0-.007a.33.33,0,0,1,.257-.389,8.055,8.055,0,0,1,.934-.133.33.33,0,0,1,.355.3v.007l.1,0a.069.069,0,0,1,0-.007.33.33,0,0,1,.334-.324,8.074,8.074,0,0,1,.94.07.329.329,0,0,1,.283.37v.007l.1.019s0,0,0-.007a.329.329,0,0,1,.4-.244,7.922,7.922,0,0,1,.9.272.329.329,0,0,1,.2.422l0,.007.095.04,0-.007a.329.329,0,0,1,.44-.152,7.974,7.974,0,0,1,.823.462.329.329,0,0,1,.1.455l0,.006.084.06,0-.006a.329.329,0,0,1,.463-.053,8.1,8.1,0,0,1,.7.628.33.33,0,0,1,0,.466l-.005,0,.069.077.005,0a.329.329,0,0,1,.463.047,8.008,8.008,0,0,1,.552.766.329.329,0,0,1-.1.454l-.006,0,.051.09.006,0a.329.329,0,0,1,.442.146,7.986,7.986,0,0,1,.373.867.329.329,0,0,1-.2.421l-.007,0,.03.1.007,0a.329.329,0,0,1,.4.239,7.961,7.961,0,0,1,.175.927.329.329,0,0,1-.285.368h-.007c0,.034.005.068.008.1h.007a.33.33,0,0,1,.338.32c0,.077,0,.155,0,.231,0,.237-.011.476-.031.711a.329.329,0,0,1-.328.3h-.036c0,.034-.009.068-.014.1h.007a.329.329,0,0,1,.262.385,7.979,7.979,0,0,1-.231.915.329.329,0,0,1-.413.214l-.007,0-.036.1.007,0a.329.329,0,0,1,.172.433,7.949,7.949,0,0,1-.425.842.329.329,0,0,1-.45.119l-.006,0-.056.087.006,0a.329.329,0,0,1,.074.46,8.037,8.037,0,0,1-.6.731.329.329,0,0,1-.465.019l-.005,0-.074.072.005.005a.329.329,0,0,1-.027.465,8.045,8.045,0,0,1-.74.586.329.329,0,0,1-.458-.081l0-.006-.088.055,0,.006a.329.329,0,0,1-.126.448,7.952,7.952,0,0,1-.85.412.329.329,0,0,1-.43-.179l0-.007-.1.035,0,.007a.329.329,0,0,1-.221.41,7.955,7.955,0,0,1-.919.217.321.321,0,0,1-.057,0,.33.33,0,0,1-.324-.273s0,0,0-.007l-.1.013a.066.066,0,0,0,0,.007.329.329,0,0,1-.3.352c-.194.014-.392.021-.587.021-.118,0-.238,0-.355-.008a.329.329,0,0,1-.315-.343s0,0,0-.007l-.1-.009s0,0,0,.007a.329.329,0,0,1-.325.282.346.346,0,0,1-.047,0,7.952,7.952,0,0,1-.925-.19.329.329,0,0,1-.233-.4l0-.007-.1-.032,0,.007a.329.329,0,0,1-.425.191,8,8,0,0,1-.861-.387.329.329,0,0,1-.139-.444l0-.006-.089-.052,0,.006a.329.329,0,0,1-.456.094,8.027,8.027,0,0,1-.757-.563.329.329,0,0,1-.04-.464l.005-.005-.076-.07,0,.005a.329.329,0,0,1-.465-.006,8.017,8.017,0,0,1-.618-.713.329.329,0,0,1,.061-.462l.006,0-.059-.085-.006,0a.329.329,0,0,1-.453-.106,7.985,7.985,0,0,1-.449-.83.329.329,0,0,1,.159-.438l.007,0-.039-.1-.007,0a.329.329,0,0,1-.42-.2,7.972,7.972,0,0,1-.258-.908.329.329,0,0,1,.251-.392h.007q-.009-.051-.017-.1h-.007l-.039,0a.329.329,0,0,1-.327-.291,8.088,8.088,0,0,1-.055-.941A.329.329,0,0,1,1314.838,1595.3Z" transform="translate(-1314.492 -1587.322)" fill="#132228"/>
          <ellipse id="Ellipse_50" data-name="Ellipse 50" cx="6.288" cy="6.288" rx="6.288" ry="6.288" transform="translate(11.62 16.433) rotate(-157.5)" fill="#081216"/>
          <g id="Group_313" data-name="Group 313" transform="translate(2.328 4.562)" opacity="0.15">
            <path id="Path_548" data-name="Path 548" d="M1416.224,1622.245a.329.329,0,0,0,.291-.175c.065-.123.136-.245.209-.364a.329.329,0,0,0-.558-.349c-.082.131-.16.267-.233.4a.329.329,0,0,0,.291.483Z" transform="translate(-1415.895 -1621.203)" fill="#fff"/>
          </g>
          <g id="Group_314" data-name="Group 314" transform="translate(3.887 1.599)" opacity="0.15">
            <path id="Path_549" data-name="Path 549" d="M1334.523,1608.994a.329.329,0,0,0,.257-.123,6.618,6.618,0,0,0-9.372-9.247.329.329,0,0,0,.419.508,5.959,5.959,0,0,1,9.75,4.6,5.893,5.893,0,0,1-1.31,3.728.329.329,0,0,0,.256.536Z" transform="translate(-1325.288 -1598.112)" fill="#fff"/>
          </g>
          <ellipse id="Ellipse_51" data-name="Ellipse 51" cx="4.638" cy="4.638" rx="4.638" ry="4.638" transform="translate(4.768 13.796) rotate(-103.283)" fill="#bec6cc"/>
          <g id="Group_315" data-name="Group 315" transform="translate(4.722 3.731)">
            <path id="Path_550" data-name="Path 550" d="M1348.468,1622.417a.183.183,0,0,0,.132-.055,4.485,4.485,0,1,0-6.649-6.009.185.185,0,1,0,.285.237,4.115,4.115,0,1,1,6.1,5.513.185.185,0,0,0,.132.315Z" transform="translate(-1341.908 -1614.731)" fill="#fff"/>
          </g>
          <ellipse id="Ellipse_52" data-name="Ellipse 52" cx="3.859" cy="3.859" rx="3.859" ry="3.859" transform="translate(10.305 13.258) rotate(-157.5)" fill="#909599"/>
          <path id="Path_551" data-name="Path 551" d="M1353.282,1623.657a3.858,3.858,0,0,0-6.493-2.819,3.858,3.858,0,1,1,5.454,5.453A3.844,3.844,0,0,0,1353.282,1623.657Z" transform="translate(-1341.392 -1615.255)" fill="#70777c"/>
          <ellipse id="Ellipse_53" data-name="Ellipse 53" cx="1.575" cy="1.575" rx="1.575" ry="1.575" transform="translate(6.914 10.023) rotate(-99.217)" fill="#bec6cc"/>
          <g id="Group_316" data-name="Group 316" transform="translate(5.282 5.615)">
            <path id="Path_552" data-name="Path 552" d="M1358.382,1634.561a.315.315,0,0,0,.117-.43h0a.315.315,0,0,0-.43-.117h0a.315.315,0,0,0-.118.43h0a.315.315,0,0,0,.274.159h0A.317.317,0,0,0,1358.382,1634.561Zm-2.5-.126a.315.315,0,0,0-.114-.431h0a.315.315,0,0,0-.431.114h0a.315.315,0,0,0,.114.431h0a.314.314,0,0,0,.158.043h0A.315.315,0,0,0,1355.884,1634.435Zm3.978-2.4a.315.315,0,0,0-.312-.317h0a.315.315,0,0,0-.318.312h0a.315.315,0,0,0,.312.318h0A.315.315,0,0,0,1359.862,1632.035Zm-5.239-.024h0c0-.006,0-.012,0-.019h0c0-.006,0-.013,0-.019h0a.315.315,0,0,0-.31-.32h0a.315.315,0,0,0-.32.31h0c0,.008,0,.016,0,.024h0c0,.008,0,.016,0,.024h0a.315.315,0,0,0,.315.315h0A.315.315,0,0,0,1354.624,1632.011Zm3.91-2.093a.315.315,0,0,0-.11-.432h0a.315.315,0,0,0-.432.11h0a.315.315,0,0,0,.11.432h0a.312.312,0,0,0,.16.044h0A.315.315,0,0,0,1358.533,1629.918Zm-2.73.082h0a.315.315,0,0,0,.121-.429h0a.315.315,0,0,0-.429-.121h0a.315.315,0,0,0-.121.429h0a.315.315,0,0,0,.275.161h0A.315.315,0,0,0,1355.8,1630Z" transform="translate(-1353.994 -1629.409)" fill="#bec6cc"/>
          </g>
          <path id="Path_553" data-name="Path 553" d="M1370.4,1644.537l.513-.889-.513-.889h-1.026l-.513.889.513.889Z" transform="translate(-1361.675 -1635.432)" fill="#909599"/>
          <path id="Path_554" data-name="Path 554" d="M1371.816,1645.374l.314-.544a.183.183,0,0,0,0-.184l-.314-.544a.184.184,0,0,0-.159-.092h-.628a.184.184,0,0,0-.159.092l-.314.544a.183.183,0,0,0,0,.184l.314.544a.184.184,0,0,0,.159.092h.628A.184.184,0,0,0,1371.816,1645.374Z" transform="translate(-1363.126 -1636.522)" fill="#bec6cc"/>
        </g>
        <g id="Group_322" data-name="Group 322" transform="translate(21.559 2.307)">
          <path id="Path_555" data-name="Path 555" d="M1467.735,1595.3a.327.327,0,0,1-.087-.243,7.988,7.988,0,0,1,.111-.937.329.329,0,0,1,.382-.266l.007,0q.011-.05.023-.1l-.007,0a.329.329,0,0,1-.226-.407,7.956,7.956,0,0,1,.313-.891.329.329,0,0,1,.431-.176l.006,0,.045-.093-.006,0a.329.329,0,0,1-.132-.446,8.045,8.045,0,0,1,.5-.8.329.329,0,0,1,.459-.079l.006,0,.064-.081-.006,0a.329.329,0,0,1-.033-.464,8.092,8.092,0,0,1,.659-.675.329.329,0,0,1,.465.022l0,.006.08-.066,0-.005a.329.329,0,0,1,.068-.461,7.993,7.993,0,0,1,.789-.517.329.329,0,0,1,.45.122l0,.006.092-.047,0-.006a.329.329,0,0,1,.166-.435,7.975,7.975,0,0,1,.884-.334.329.329,0,0,1,.412.217.05.05,0,0,1,0,.007l.1-.026,0-.007a.329.329,0,0,1,.257-.389,8.042,8.042,0,0,1,.934-.133.329.329,0,0,1,.355.3s0,0,0,.007l.1,0s0,0,0-.007a.33.33,0,0,1,.334-.324,8.078,8.078,0,0,1,.94.07.329.329,0,0,1,.283.37.066.066,0,0,1,0,.007l.1.019v-.007a.329.329,0,0,1,.4-.244,7.918,7.918,0,0,1,.9.272.329.329,0,0,1,.2.422l0,.007.095.04,0-.007a.329.329,0,0,1,.44-.152,7.945,7.945,0,0,1,.822.462.329.329,0,0,1,.1.455l0,.006.084.06,0-.006a.329.329,0,0,1,.463-.053,8.059,8.059,0,0,1,.7.628.329.329,0,0,1,0,.466l-.005,0,.069.077.005,0a.329.329,0,0,1,.463.047,8.006,8.006,0,0,1,.552.766.329.329,0,0,1-.1.454l-.006,0,.051.09.006,0a.329.329,0,0,1,.442.146,7.938,7.938,0,0,1,.373.867.329.329,0,0,1-.2.421l-.007,0,.03.1.007,0a.329.329,0,0,1,.4.239,7.962,7.962,0,0,1,.175.927.329.329,0,0,1-.285.368h-.007c0,.034.005.068.008.1h.007a.33.33,0,0,1,.339.32c0,.077,0,.155,0,.231,0,.237-.01.476-.031.711a.329.329,0,0,1-.328.3h-.037c0,.034-.009.068-.014.1h.007a.329.329,0,0,1,.262.385,7.954,7.954,0,0,1-.231.915.329.329,0,0,1-.413.214l-.007,0-.036.1.007,0a.329.329,0,0,1,.172.433,8,8,0,0,1-.424.842.329.329,0,0,1-.45.119l-.006,0-.056.087.006,0a.329.329,0,0,1,.074.46,8.038,8.038,0,0,1-.6.731.329.329,0,0,1-.465.019l-.005,0-.074.072.005.005a.329.329,0,0,1-.027.465,8.078,8.078,0,0,1-.74.586.329.329,0,0,1-.458-.081l0-.006-.088.055,0,.006a.329.329,0,0,1-.126.448,7.973,7.973,0,0,1-.85.412.329.329,0,0,1-.43-.179l0-.007-.1.035,0,.007a.329.329,0,0,1-.221.41,7.963,7.963,0,0,1-.919.217.319.319,0,0,1-.057,0,.329.329,0,0,1-.324-.273v-.007l-.1.013s0,0,0,.007a.329.329,0,0,1-.3.352c-.194.014-.392.021-.587.021-.118,0-.238,0-.356-.008a.329.329,0,0,1-.314-.343s0,0,0-.007l-.1-.009s0,0,0,.007a.329.329,0,0,1-.326.282.344.344,0,0,1-.047,0,7.94,7.94,0,0,1-.924-.19.329.329,0,0,1-.233-.4l0-.007-.1-.032,0,.007a.329.329,0,0,1-.424.191,7.986,7.986,0,0,1-.861-.387.329.329,0,0,1-.139-.444l0-.006-.089-.052,0,.006a.33.33,0,0,1-.456.094,8.025,8.025,0,0,1-.756-.563.329.329,0,0,1-.04-.464l0-.005-.076-.07,0,.005a.33.33,0,0,1-.466-.006,8.036,8.036,0,0,1-.618-.713.329.329,0,0,1,.061-.462l.006,0-.059-.085-.006,0a.329.329,0,0,1-.453-.106,7.94,7.94,0,0,1-.449-.83.329.329,0,0,1,.159-.438l.007,0-.039-.1-.007,0a.329.329,0,0,1-.419-.2,7.922,7.922,0,0,1-.258-.908.329.329,0,0,1,.251-.392h.007c-.006-.034-.012-.068-.017-.1h-.007l-.039,0a.329.329,0,0,1-.327-.291,8.088,8.088,0,0,1-.055-.941A.329.329,0,0,1,1467.735,1595.3Z" transform="translate(-1467.389 -1587.322)" fill="#132228"/>
          <ellipse id="Ellipse_54" data-name="Ellipse 54" cx="6.288" cy="6.288" rx="6.288" ry="6.288" transform="translate(11.62 16.433) rotate(-157.5)" fill="#081216"/>
          <g id="Group_318" data-name="Group 318" transform="translate(2.327 4.562)" opacity="0.15">
            <path id="Path_556" data-name="Path 556" d="M1569.122,1622.245a.329.329,0,0,0,.291-.175c.065-.123.136-.245.209-.364a.329.329,0,0,0-.559-.349c-.082.131-.16.267-.233.4a.329.329,0,0,0,.291.483Z" transform="translate(-1568.793 -1621.203)" fill="#fff"/>
          </g>
          <g id="Group_319" data-name="Group 319" transform="translate(3.887 1.599)" opacity="0.15">
            <path id="Path_557" data-name="Path 557" d="M1487.42,1608.994a.328.328,0,0,0,.257-.123,6.618,6.618,0,0,0-9.372-9.247.329.329,0,0,0,.419.508,5.959,5.959,0,0,1,9.75,4.6,5.893,5.893,0,0,1-1.31,3.728.329.329,0,0,0,.257.536Z" transform="translate(-1478.185 -1598.112)" fill="#fff"/>
          </g>
          <circle id="Ellipse_55" data-name="Ellipse 55" cx="4.638" cy="4.638" r="4.638" transform="translate(8.216 14.775) rotate(-135)" fill="#bec6cc"/>
          <g id="Group_320" data-name="Group 320" transform="translate(4.722 3.731)">
            <path id="Path_558" data-name="Path 558" d="M1501.365,1622.417a.184.184,0,0,0,.132-.055,4.485,4.485,0,1,0-6.649-6.009.185.185,0,0,0,.285.237,4.115,4.115,0,1,1,6.1,5.513.185.185,0,0,0,.132.315Z" transform="translate(-1494.805 -1614.731)" fill="#fff"/>
          </g>
          <circle id="Ellipse_56" data-name="Ellipse 56" cx="3.859" cy="3.859" r="3.859" transform="translate(8.216 13.673) rotate(-135)" fill="#909599"/>
          <path id="Path_559" data-name="Path 559" d="M1506.179,1623.657a3.858,3.858,0,0,0-6.493-2.819,3.858,3.858,0,1,1,5.453,5.453A3.845,3.845,0,0,0,1506.179,1623.657Z" transform="translate(-1494.289 -1615.255)" fill="#70777c"/>
          <ellipse id="Ellipse_57" data-name="Ellipse 57" cx="1.575" cy="1.575" rx="1.575" ry="1.575" transform="translate(6.914 10.023) rotate(-99.217)" fill="#bec6cc"/>
          <g id="Group_321" data-name="Group 321" transform="translate(5.282 5.615)">
            <path id="Path_560" data-name="Path 560" d="M1511.279,1634.561a.315.315,0,0,0,.117-.43h0a.315.315,0,0,0-.43-.117h0a.315.315,0,0,0-.117.43h0a.315.315,0,0,0,.274.159h0A.315.315,0,0,0,1511.279,1634.561Zm-2.5-.126a.315.315,0,0,0-.114-.431h0a.315.315,0,0,0-.431.114h0a.315.315,0,0,0,.114.431h0a.314.314,0,0,0,.158.043h0A.314.314,0,0,0,1508.781,1634.435Zm3.978-2.4a.315.315,0,0,0-.313-.317h0a.315.315,0,0,0-.317.312h0a.315.315,0,0,0,.312.318h0A.315.315,0,0,0,1512.759,1632.035Zm-5.239-.024h0c0-.006,0-.012,0-.019h0c0-.006,0-.013,0-.019h0a.315.315,0,0,0-.31-.32h0a.315.315,0,0,0-.32.31h0c0,.008,0,.016,0,.024h0c0,.008,0,.016,0,.024h0a.315.315,0,0,0,.315.315h0A.315.315,0,0,0,1507.521,1632.011Zm3.91-2.093a.315.315,0,0,0-.11-.432h0a.315.315,0,0,0-.432.11h0a.315.315,0,0,0,.11.432h0a.313.313,0,0,0,.16.044h0A.315.315,0,0,0,1511.431,1629.918Zm-2.73.082h0a.315.315,0,0,0,.121-.429h0a.315.315,0,0,0-.429-.121h0a.315.315,0,0,0-.121.429h0a.315.315,0,0,0,.275.161h0A.315.315,0,0,0,1508.7,1630Z" transform="translate(-1506.891 -1629.409)" fill="#bec6cc"/>
          </g>
          <path id="Path_561" data-name="Path 561" d="M1523.3,1644.537l.513-.889-.513-.889h-1.026l-.513.889.513.889Z" transform="translate(-1514.572 -1635.432)" fill="#909599"/>
          <path id="Path_562" data-name="Path 562" d="M1524.713,1645.374l.314-.544a.183.183,0,0,0,0-.184l-.314-.544a.184.184,0,0,0-.159-.092h-.628a.184.184,0,0,0-.159.092l-.314.544a.184.184,0,0,0,0,.184l.314.544a.184.184,0,0,0,.159.092h.628A.184.184,0,0,0,1524.713,1645.374Z" transform="translate(-1516.024 -1636.522)" fill="#bec6cc"/>
        </g>
        <g id="Group_327" data-name="Group 327" transform="translate(1.262 1.63)">
          <path id="Path_563" data-name="Path 563" d="M1620.633,1595.3a.328.328,0,0,1-.087-.243,8.014,8.014,0,0,1,.111-.937.329.329,0,0,1,.382-.266l.007,0q.011-.05.023-.1l-.007,0a.329.329,0,0,1-.226-.407,7.931,7.931,0,0,1,.313-.891.329.329,0,0,1,.431-.176l.006,0,.045-.093-.006,0a.329.329,0,0,1-.132-.446,8,8,0,0,1,.5-.8.329.329,0,0,1,.459-.079l.006,0,.064-.081-.006,0a.329.329,0,0,1-.033-.464,8.052,8.052,0,0,1,.659-.675.329.329,0,0,1,.465.022l0,.006.08-.066,0-.005a.329.329,0,0,1,.068-.461,8.009,8.009,0,0,1,.79-.517.329.329,0,0,1,.449.122l0,.006.092-.047,0-.006a.329.329,0,0,1,.166-.435,7.989,7.989,0,0,1,.883-.334.329.329,0,0,1,.412.217l0,.007.1-.026,0-.007a.329.329,0,0,1,.257-.389,8.053,8.053,0,0,1,.934-.133.329.329,0,0,1,.355.3s0,0,0,.007l.1,0s0,0,0-.007a.33.33,0,0,1,.334-.324,8.079,8.079,0,0,1,.941.07.329.329,0,0,1,.283.37v.007l.1.019v-.007a.329.329,0,0,1,.4-.244,7.931,7.931,0,0,1,.9.272.329.329,0,0,1,.2.422l0,.007.095.04,0-.007a.329.329,0,0,1,.44-.152,7.958,7.958,0,0,1,.822.462.329.329,0,0,1,.1.455l0,.006.084.06,0-.006a.329.329,0,0,1,.463-.053,8.1,8.1,0,0,1,.7.628.329.329,0,0,1,0,.466l-.005,0,.069.077.005,0a.329.329,0,0,1,.463.047,8.028,8.028,0,0,1,.552.766.329.329,0,0,1-.1.454l-.006,0,.051.09.006,0a.329.329,0,0,1,.442.146,7.985,7.985,0,0,1,.373.867.329.329,0,0,1-.2.421l-.007,0c.01.033.02.066.03.1l.007,0a.329.329,0,0,1,.4.239,7.987,7.987,0,0,1,.175.927.329.329,0,0,1-.285.368h-.007c0,.034.006.068.008.1h.007a.33.33,0,0,1,.338.32c0,.077,0,.155,0,.231,0,.237-.01.476-.031.711a.329.329,0,0,1-.328.3h-.036c0,.034-.009.068-.014.1h.007a.329.329,0,0,1,.262.385,7.953,7.953,0,0,1-.231.915.329.329,0,0,1-.413.214l-.007,0-.036.1.007,0a.329.329,0,0,1,.172.433,7.95,7.95,0,0,1-.425.842.329.329,0,0,1-.45.119l-.006,0-.056.087.006,0a.33.33,0,0,1,.074.46,8.059,8.059,0,0,1-.6.731.329.329,0,0,1-.465.019l0,0-.074.072.005.005a.329.329,0,0,1-.027.465,8.063,8.063,0,0,1-.74.586.329.329,0,0,1-.458-.081l0-.006-.088.055,0,.006a.329.329,0,0,1-.126.448,7.941,7.941,0,0,1-.85.412.329.329,0,0,1-.43-.179l0-.007-.1.035,0,.007a.329.329,0,0,1-.221.41,7.967,7.967,0,0,1-.919.217.324.324,0,0,1-.057,0,.329.329,0,0,1-.324-.273v-.007l-.1.013s0,0,0,.007a.329.329,0,0,1-.3.352c-.194.014-.392.021-.587.021-.118,0-.238,0-.355-.008a.329.329,0,0,1-.314-.343s0,0,0-.007l-.1-.009s0,0,0,.007a.329.329,0,0,1-.325.282.346.346,0,0,1-.047,0,7.952,7.952,0,0,1-.925-.19.329.329,0,0,1-.233-.4l0-.007-.1-.032,0,.007a.329.329,0,0,1-.425.191,8,8,0,0,1-.861-.387.329.329,0,0,1-.139-.444l0-.006-.089-.052,0,.006a.329.329,0,0,1-.456.094,8,8,0,0,1-.757-.563.329.329,0,0,1-.04-.464l0-.005-.076-.07,0,.005a.329.329,0,0,1-.465-.006,8.037,8.037,0,0,1-.618-.713.329.329,0,0,1,.061-.462l.006,0-.059-.085-.006,0a.329.329,0,0,1-.453-.106,8.031,8.031,0,0,1-.449-.83.329.329,0,0,1,.159-.438l.007,0-.039-.1-.007,0a.329.329,0,0,1-.42-.2,7.972,7.972,0,0,1-.258-.908.329.329,0,0,1,.251-.392h.007c-.006-.034-.012-.068-.017-.1h-.007l-.039,0a.33.33,0,0,1-.327-.291,8.115,8.115,0,0,1-.055-.941A.328.328,0,0,1,1620.633,1595.3Z" transform="translate(-1619.61 -1586.645)" fill="#132228"/>
          <circle id="Ellipse_58" data-name="Ellipse 58" cx="6.288" cy="6.288" r="6.288" transform="translate(8.893 17.787) rotate(-135)" fill="#081216"/>
          <g id="Group_323" data-name="Group 323" transform="translate(3.004 5.239)" opacity="0.15">
            <path id="Path_564" data-name="Path 564" d="M1722.019,1622.245a.329.329,0,0,0,.291-.175c.065-.123.136-.246.21-.364a.329.329,0,1,0-.558-.349c-.082.131-.16.267-.233.4a.329.329,0,0,0,.291.483Z" transform="translate(-1721.689 -1621.203)" fill="#fff"/>
          </g>
          <g id="Group_324" data-name="Group 324" transform="translate(4.564 2.276)" opacity="0.15">
            <path id="Path_565" data-name="Path 565" d="M1640.318,1608.994a.329.329,0,0,0,.257-.123,6.618,6.618,0,0,0-9.372-9.247.329.329,0,0,0,.419.508,5.959,5.959,0,0,1,9.75,4.6,5.894,5.894,0,0,1-1.31,3.728.329.329,0,0,0,.256.536Z" transform="translate(-1631.083 -1598.112)" fill="#fff"/>
          </g>
          <circle id="Ellipse_59" data-name="Ellipse 59" cx="4.638" cy="4.638" r="4.638" transform="translate(8.893 15.452) rotate(-135)" fill="#bec6cc"/>
          <g id="Group_325" data-name="Group 325" transform="translate(5.399 4.408)">
            <path id="Path_566" data-name="Path 566" d="M1654.263,1622.417a.183.183,0,0,0,.132-.055,4.485,4.485,0,1,0-6.649-6.009.185.185,0,1,0,.285.237,4.115,4.115,0,1,1,6.1,5.513.185.185,0,0,0,.132.315Z" transform="translate(-1647.703 -1614.731)" fill="#fff"/>
          </g>
          <circle id="Ellipse_60" data-name="Ellipse 60" cx="3.859" cy="3.859" r="3.859" transform="translate(8.893 14.35) rotate(-135)" fill="#909599"/>
          <path id="Path_567" data-name="Path 567" d="M1659.077,1623.657a3.858,3.858,0,0,0-6.493-2.819,3.858,3.858,0,1,1,5.453,5.453A3.844,3.844,0,0,0,1659.077,1623.657Z" transform="translate(-1646.51 -1614.578)" fill="#70777c"/>
          <circle id="Ellipse_61" data-name="Ellipse 61" cx="1.575" cy="1.575" r="1.575" transform="translate(8.893 11.12) rotate(-135)" fill="#bec6cc"/>
          <g id="Group_326" data-name="Group 326" transform="translate(5.959 6.292)">
            <path id="Path_568" data-name="Path 568" d="M1664.177,1634.561a.315.315,0,0,0,.117-.43h0a.315.315,0,0,0-.43-.117h0a.315.315,0,0,0-.117.43h0a.315.315,0,0,0,.274.159h0A.315.315,0,0,0,1664.177,1634.561Zm-2.5-.126a.315.315,0,0,0-.114-.431h0a.315.315,0,0,0-.431.114h0a.315.315,0,0,0,.114.431h0a.314.314,0,0,0,.158.043h0A.314.314,0,0,0,1661.679,1634.435Zm3.978-2.4a.315.315,0,0,0-.312-.317h0a.315.315,0,0,0-.318.312h0a.315.315,0,0,0,.313.318h0A.315.315,0,0,0,1665.657,1632.035Zm-5.238-.024h0c0-.006,0-.012,0-.019h0c0-.006,0-.013,0-.019h0a.315.315,0,0,0-.31-.32h0a.315.315,0,0,0-.32.31h0c0,.008,0,.016,0,.024h0c0,.008,0,.016,0,.024h0a.315.315,0,0,0,.315.315h0A.315.315,0,0,0,1660.419,1632.011Zm3.91-2.093a.315.315,0,0,0-.11-.432h0a.315.315,0,0,0-.432.11h0a.315.315,0,0,0,.11.432h0a.313.313,0,0,0,.16.044h0A.315.315,0,0,0,1664.328,1629.918Zm-2.73.082h0a.315.315,0,0,0,.121-.429h0a.315.315,0,0,0-.429-.121h0a.315.315,0,0,0-.121.429h0a.315.315,0,0,0,.275.161h0A.317.317,0,0,0,1661.6,1630Z" transform="translate(-1659.789 -1629.409)" fill="#bec6cc"/>
          </g>
          <path id="Path_569" data-name="Path 569" d="M1676.2,1644.537l.513-.889-.513-.889h-1.026l-.513.889.513.889Z" transform="translate(-1666.792 -1634.755)" fill="#909599"/>
          <path id="Path_570" data-name="Path 570" d="M1677.61,1645.374l.314-.544a.184.184,0,0,0,0-.184l-.314-.544a.184.184,0,0,0-.159-.092h-.629a.184.184,0,0,0-.159.092l-.314.544a.183.183,0,0,0,0,.184l.314.544a.184.184,0,0,0,.159.092h.629A.184.184,0,0,0,1677.61,1645.374Z" transform="translate(-1668.244 -1635.845)" fill="#bec6cc"/>
        </g>
        <path id="Path_571" data-name="Path 571" d="M1298.911,1571.933h0l.81-1.2a6.964,6.964,0,0,1,5.768-3.062h4.768a6.964,6.964,0,0,1,5.768,3.062l.81,1.2h0a13.755,13.755,0,0,1,1.193,5.6v2.938h-.74v-2.569a9.415,9.415,0,0,0-9.415-9.415h0a9.415,9.415,0,0,0-9.415,9.415v2.569h-.74v-2.938A13.755,13.755,0,0,1,1298.911,1571.933Z" transform="translate(-1258.479 -1567.674)" fill="#081216"/>
        <path id="Path_572" data-name="Path 572" d="M1451.809,1571.933h0l.81-1.2a6.964,6.964,0,0,1,5.768-3.062h4.768a6.964,6.964,0,0,1,5.768,3.062l.81,1.2h0a13.755,13.755,0,0,1,1.193,5.6v2.938h-.74v-2.569a9.415,9.415,0,0,0-9.415-9.415h0a9.415,9.415,0,0,0-9.415,9.415v2.569h-.74v-2.938A13.755,13.755,0,0,1,1451.809,1571.933Z" transform="translate(-1430.996 -1567.674)" fill="#081216"/>
        <path id="Path_573" data-name="Path 573" d="M1604.706,1571.933h0l.81-1.2a6.964,6.964,0,0,1,5.768-3.062h4.768a6.964,6.964,0,0,1,5.768,3.062l.81,1.2h0a13.755,13.755,0,0,1,1.193,5.6v2.938h-.74v-2.569a9.415,9.415,0,0,0-9.415-9.415h0a9.415,9.415,0,0,0-9.415,9.415v2.569h-.74v-2.938A13.755,13.755,0,0,1,1604.706,1571.933Z" transform="translate(-1603.513 -1567.674)" fill="#081216"/>
      </g>
    </g>
  </g>
</svg>
