<svg xmlns="http://www.w3.org/2000/svg" width="36.669" height="47.68" viewBox="0 0 36.669 47.68">
  <g id="_2848860_map_location_pin_icon" data-name="2848860_map_location_pin_icon" transform="translate(-104.8 -59.237)">
    <path id="Path_636" data-name="Path 636" d="M113.865,287.012c-.024,0-.048-.012-.073-.012l-.073.012a5.679,5.679,0,0,0-3.854,9.476l.57.594a17.972,17.972,0,0,1,3.284,4.9c.024.061.048.133.073.194l.073-.206a17.966,17.966,0,0,1,3.272-4.884l.57-.594a5.68,5.68,0,0,0-3.841-9.476Z" transform="translate(-3.164 -200.163)" fill="#767676"/>
    <path id="Path_637" data-name="Path 637" d="M123.947,389.2a15.042,15.042,0,0,0-1.224,1.866,2.155,2.155,0,0,1,.545,1.442,2.183,2.183,0,0,1-2.012,2.181l-.521-.024a2.179,2.179,0,0,1-1.83-2.157,2.23,2.23,0,0,1,.533-1.442h0a16,16,0,0,0-1.224-1.866,4.378,4.378,0,1,0,7.235,3.308A4.32,4.32,0,0,0,123.947,389.2Z" transform="translate(-10.458 -289.978)" fill="#767676"/>
    <path id="Path_638" data-name="Path 638" d="M135.919,151.9v3.793a2.193,2.193,0,0,1-4.387,0V151.9a4.378,4.378,0,0,0-.824,6.956l-4.508,6.386a4.416,4.416,0,0,0-1.7-.339,4.472,4.472,0,0,0-2.036.5l-8.967-5.562a4.374,4.374,0,1,0-5.332,4.9l.254,2.92a6.544,6.544,0,0,1,2.084-.473h.085l-.218-2.5a4.376,4.376,0,0,0,2.836-2.472l7.61,4.726a4.374,4.374,0,1,0,7.138-.364l4.69-6.653a4.082,4.082,0,0,0,1.091.145,4.375,4.375,0,0,0,2.181-8.168Zm-26.757,10.761a2.181,2.181,0,1,1,2.181-2.181A2.188,2.188,0,0,1,109.163,162.661Zm15.329,8.8a2.181,2.181,0,1,1,2.181-2.181A2.188,2.188,0,0,1,124.492,171.459Z" transform="translate(0 -81.434)" fill="#767676"/>
    <path id="Path_639" data-name="Path 639" d="M336.545,61.086A1.094,1.094,0,0,0,335.5,60.3a1.107,1.107,0,0,0-1.1,1.1V74.247a1.1,1.1,0,0,0,2.206,0V66.164c2.411.1,3.938-2.666,6.641-1.612V59.475C340.508,58.42,338.981,61.22,336.545,61.086Z" transform="translate(-201.777 0)" fill="#767676"/>
  </g>
</svg>
