<svg xmlns="http://www.w3.org/2000/svg" width="39.9" height="54.532" viewBox="0 0 39.9 54.532">
  <path id="Path_179" data-name="Path 179" d="M382.931,699.316a8.436,8.436,0,0,1-2.268,7.8l-17.5,17.5c.231.688.5,1.393.8,2.112l16.379-16.378a2.8,2.8,0,0,1,3.967,0l2.407,2.406-19.8,19.8q.494.855,1.018,1.711l5.5-5.5h0a6.209,6.209,0,0,1,0,8.781l-2.022,2.022a170.365,170.365,0,0,0,11.23,14.273s20.421-22.841,20.421-34.119A20.417,20.417,0,0,0,382.931,699.316Z" transform="translate(-363.163 -699.316)" fill="#fda328"/>
</svg>
