<svg xmlns="http://www.w3.org/2000/svg" width="45.535" height="24.752" viewBox="0 0 45.535 24.752">
  <g id="_7019497_shipping_transportation_delivery_truck_online_icon" data-name="7019497_shipping_transportation_delivery_truck_online_icon" transform="translate(-0.5 -8.5)">
    <path id="Path_630" data-name="Path 630" d="M31.148,9V29.189H16.807a3.593,3.593,0,0,0-7.17,0H6V9Z" transform="translate(2.423)" fill="none" stroke="#767676" stroke-linecap="round" stroke-linejoin="round" stroke-width="1"/>
    <path id="Path_631" data-name="Path 631" d="M34.905,20.126v7.126h-2.39a3.593,3.593,0,0,0-7.17,0h-2.4V13h5Z" transform="translate(10.63 1.938)" fill="none" stroke="#767676" stroke-linecap="round" stroke-linejoin="round" stroke-width="1"/>
    <path id="Path_632" data-name="Path 632" d="M34.905,17.8v7.126h-2.39a3.593,3.593,0,0,0-7.17,0h-2.4V17.8Z" transform="translate(10.63 4.264)" fill="none" stroke="#767676" stroke-linecap="round" stroke-linejoin="round" stroke-width="1"/>
    <ellipse id="Ellipse_74" data-name="Ellipse 74" cx="3.593" cy="3.563" rx="3.593" ry="3.563" transform="translate(12.045 25.627)" fill="none" stroke="#767676" stroke-linecap="round" stroke-linejoin="round" stroke-width="1"/>
    <ellipse id="Ellipse_75" data-name="Ellipse 75" cx="3.593" cy="3.563" rx="3.593" ry="3.563" transform="translate(35.96 25.627)" fill="none" stroke="#767676" stroke-linecap="round" stroke-linejoin="round" stroke-width="1"/>
    <line id="Line_5" data-name="Line 5" x2="3.875" transform="translate(1 11.375)" fill="none" stroke="#767676" stroke-linecap="round" stroke-linejoin="round" stroke-width="1"/>
    <line id="Line_6" data-name="Line 6" x2="3.875" transform="translate(1 16.126)" fill="none" stroke="#767676" stroke-linecap="round" stroke-linejoin="round" stroke-width="1"/>
    <line id="Line_7" data-name="Line 7" x2="3.875" transform="translate(1 20.876)" fill="none" stroke="#767676" stroke-linecap="round" stroke-linejoin="round" stroke-width="1"/>
  </g>
</svg>
